<svg version="1.1" viewBox="0.0 0.0 835.0 402.0" fill="none" stroke="none" stroke-linecap="square" stroke-miterlimit="10" width="835" height="402" xmlns:xlink="http://www.w3.org/1999/xlink" xmlns="http://www.w3.org/2000/svg"><path fill="#ffffff" d="M0 0L835.0 0L835.0 402.0L0 402.0L0 0Z" fill-rule="nonzero"/><path stroke="#333333" stroke-width="1.0" stroke-linecap="butt" d="M103.5 65.5L103.5 363.5" fill-rule="nonzero"/><path stroke="#cccccc" stroke-width="1.0" stroke-linecap="butt" d="M244.5 65.5L244.5 363.5" fill-rule="nonzero"/><path stroke="#cccccc" stroke-width="1.0" stroke-linecap="butt" d="M385.5 65.5L385.5 363.5" fill-rule="nonzero"/><path stroke="#cccccc" stroke-width="1.0" stroke-linecap="butt" d="M527.5 65.5L527.5 363.5" fill-rule="nonzero"/><path stroke="#cccccc" stroke-width="1.0" stroke-linecap="butt" d="M668.5 65.5L668.5 363.5" fill-rule="nonzero"/><path stroke="#cccccc" stroke-width="1.0" stroke-linecap="butt" d="M809.5 65.5L809.5 363.5" fill-rule="nonzero"/><clipPath id="id_0"><path d="M103.364265 65.5L809.49316 65.5L809.49316 363.9L103.364265 363.9L103.364265 65.5Z" clip-rule="nonzero"/></clipPath><path stroke="#000000" stroke-width="2.0" stroke-linecap="butt" stroke-opacity="0.0" clip-path="url(#id_0)" d="M103.0 100.0L103.0 91.0L228.0 91.0C229.10457 91.0 230.0 91.89543 230.0 93.0L230.0 98.0C230.0 99.10457 229.10457 100.0 228.0 100.0Z" fill-rule="nonzero"/><path fill="#4285f4" clip-path="url(#id_0)" d="M103.0 100.0L103.0 91.0L228.0 91.0C229.10457 91.0 230.0 91.89543 230.0 93.0L230.0 98.0C230.0 99.10457 229.10457 100.0 228.0 100.0Z" fill-rule="nonzero"/><path stroke="#000000" stroke-width="2.0" stroke-linecap="butt" stroke-opacity="0.0" clip-path="url(#id_0)" d="M103.0 168.0L103.0 159.0L370.0 159.0C371.10458 159.0 372.0 159.89543 372.0 161.0L372.0 166.0C372.0 167.10457 371.10458 168.0 370.0 168.0Z" fill-rule="nonzero"/><path fill="#4285f4" clip-path="url(#id_0)" d="M103.0 168.0L103.0 159.0L370.0 159.0C371.10458 159.0 372.0 159.89543 372.0 161.0L372.0 166.0C372.0 167.10457 371.10458 168.0 370.0 168.0Z" fill-rule="nonzero"/><path stroke="#000000" stroke-width="2.0" stroke-linecap="butt" stroke-opacity="0.0" clip-path="url(#id_0)" d="M103.0 237.0L103.0 228.0L364.0 228.0C365.10458 228.0 366.0 228.89543 366.0 230.0L366.0 235.0C366.0 236.10457 365.10458 237.0 364.0 237.0Z" fill-rule="nonzero"/><path fill="#4285f4" clip-path="url(#id_0)" d="M103.0 237.0L103.0 228.0L364.0 228.0C365.10458 228.0 366.0 228.89543 366.0 230.0L366.0 235.0C366.0 236.10457 365.10458 237.0 364.0 237.0Z" fill-rule="nonzero"/><path stroke="#000000" stroke-width="2.0" stroke-linecap="butt" stroke-opacity="0.0" clip-path="url(#id_0)" d="M103.0 306.0L103.0 297.0L545.0 297.0C546.10455 297.0 547.0 297.89542 547.0 299.0L547.0 304.0C547.0 305.10458 546.10455 306.0 545.0 306.0Z" fill-rule="nonzero"/><path fill="#4285f4" clip-path="url(#id_0)" d="M103.0 306.0L103.0 297.0L545.0 297.0C546.10455 297.0 547.0 297.89542 547.0 299.0L547.0 304.0C547.0 305.10458 546.10455 306.0 545.0 306.0Z" fill-rule="nonzero"/><path stroke="#000000" stroke-width="2.0" stroke-linecap="butt" stroke-opacity="0.0" clip-path="url(#id_0)" d="M103.0 111.0L103.0 102.0L210.0 102.0C211.10457 102.0 212.0 102.89543 212.0 104.0L212.0 109.0C212.0 110.10457 211.10457 111.0 210.0 111.0Z" fill-rule="nonzero"/><path fill="#ea4335" clip-path="url(#id_0)" d="M103.0 111.0L103.0 102.0L210.0 102.0C211.10457 102.0 212.0 102.89543 212.0 104.0L212.0 109.0C212.0 110.10457 211.10457 111.0 210.0 111.0Z" fill-rule="nonzero"/><path stroke="#000000" stroke-width="2.0" stroke-linecap="butt" stroke-opacity="0.0" clip-path="url(#id_0)" d="M103.0 179.0L103.0 170.0L306.0 170.0C307.10458 170.0 308.0 170.89543 308.0 172.0L308.0 177.0C308.0 178.10457 307.10458 179.0 306.0 179.0Z" fill-rule="nonzero"/><path fill="#ea4335" clip-path="url(#id_0)" d="M103.0 179.0L103.0 170.0L306.0 170.0C307.10458 170.0 308.0 170.89543 308.0 172.0L308.0 177.0C308.0 178.10457 307.10458 179.0 306.0 179.0Z" fill-rule="nonzero"/><path stroke="#000000" stroke-width="2.0" stroke-linecap="butt" stroke-opacity="0.0" clip-path="url(#id_0)" d="M103.0 248.0L103.0 239.0L401.0 239.0C402.10458 239.0 403.0 239.89543 403.0 241.0L403.0 246.0C403.0 247.10457 402.10458 248.0 401.0 248.0Z" fill-rule="nonzero"/><path fill="#ea4335" clip-path="url(#id_0)" d="M103.0 248.0L103.0 239.0L401.0 239.0C402.10458 239.0 403.0 239.89543 403.0 241.0L403.0 246.0C403.0 247.10457 402.10458 248.0 401.0 248.0Z" fill-rule="nonzero"/><path stroke="#000000" stroke-width="2.0" stroke-linecap="butt" stroke-opacity="0.0" clip-path="url(#id_0)" d="M103.0 317.0L103.0 308.0L618.0 308.0C619.10455 308.0 620.0 308.89542 620.0 310.0L620.0 315.0C620.0 316.10458 619.10455 317.0 618.0 317.0Z" fill-rule="nonzero"/><path fill="#ea4335" clip-path="url(#id_0)" d="M103.0 317.0L103.0 308.0L618.0 308.0C619.10455 308.0 620.0 308.89542 620.0 310.0L620.0 315.0C620.0 316.10458 619.10455 317.0 618.0 317.0Z" fill-rule="nonzero"/><path stroke="#000000" stroke-width="2.0" stroke-linecap="butt" stroke-opacity="0.0" clip-path="url(#id_0)" d="M103.0 122.0L103.0 113.0L237.0 113.0C238.10457 113.0 239.0 113.89543 239.0 115.0L239.0 120.0C239.0 121.10457 238.10457 122.0 237.0 122.0Z" fill-rule="nonzero"/><path fill="#fbbc04" clip-path="url(#id_0)" d="M103.0 122.0L103.0 113.0L237.0 113.0C238.10457 113.0 239.0 113.89543 239.0 115.0L239.0 120.0C239.0 121.10457 238.10457 122.0 237.0 122.0Z" fill-rule="nonzero"/><path stroke="#000000" stroke-width="2.0" stroke-linecap="butt" stroke-opacity="0.0" clip-path="url(#id_0)" d="M103.0 190.0L103.0 181.0L327.0 181.0C328.10458 181.0 329.0 181.89543 329.0 183.0L329.0 188.0C329.0 189.10457 328.10458 190.0 327.0 190.0Z" fill-rule="nonzero"/><path fill="#fbbc04" clip-path="url(#id_0)" d="M103.0 190.0L103.0 181.0L327.0 181.0C328.10458 181.0 329.0 181.89543 329.0 183.0L329.0 188.0C329.0 189.10457 328.10458 190.0 327.0 190.0Z" fill-rule="nonzero"/><path stroke="#000000" stroke-width="2.0" stroke-linecap="butt" stroke-opacity="0.0" clip-path="url(#id_0)" d="M103.0 259.0L103.0 250.0L350.0 250.0C351.10458 250.0 352.0 250.89543 352.0 252.0L352.0 257.0C352.0 258.10458 351.10458 259.0 350.0 259.0Z" fill-rule="nonzero"/><path fill="#fbbc04" clip-path="url(#id_0)" d="M103.0 259.0L103.0 250.0L350.0 250.0C351.10458 250.0 352.0 250.89543 352.0 252.0L352.0 257.0C352.0 258.10458 351.10458 259.0 350.0 259.0Z" fill-rule="nonzero"/><path stroke="#000000" stroke-width="2.0" stroke-linecap="butt" stroke-opacity="0.0" clip-path="url(#id_0)" d="M103.0 328.0L103.0 319.0L621.0 319.0C622.10455 319.0 623.0 319.89542 623.0 321.0L623.0 326.0C623.0 327.10458 622.10455 328.0 621.0 328.0Z" fill-rule="nonzero"/><path fill="#fbbc04" clip-path="url(#id_0)" d="M103.0 328.0L103.0 319.0L621.0 319.0C622.10455 319.0 623.0 319.89542 623.0 321.0L623.0 326.0C623.0 327.10458 622.10455 328.0 621.0 328.0Z" fill-rule="nonzero"/><path stroke="#000000" stroke-width="2.0" stroke-linecap="butt" stroke-opacity="0.0" clip-path="url(#id_0)" d="M103.0 133.0L103.0 124.0L192.0 124.0C193.10457 124.0 194.0 124.89543 194.0 126.0L194.0 131.0C194.0 132.10457 193.10457 133.0 192.0 133.0Z" fill-rule="nonzero"/><path fill="#34a853" clip-path="url(#id_0)" d="M103.0 133.0L103.0 124.0L192.0 124.0C193.10457 124.0 194.0 124.89543 194.0 126.0L194.0 131.0C194.0 132.10457 193.10457 133.0 192.0 133.0Z" fill-rule="nonzero"/><path stroke="#000000" stroke-width="2.0" stroke-linecap="butt" stroke-opacity="0.0" clip-path="url(#id_0)" d="M103.0 201.0L103.0 192.0L293.0 192.0C294.10458 192.0 295.0 192.89543 295.0 194.0L295.0 199.0C295.0 200.10457 294.10458 201.0 293.0 201.0Z" fill-rule="nonzero"/><path fill="#34a853" clip-path="url(#id_0)" d="M103.0 201.0L103.0 192.0L293.0 192.0C294.10458 192.0 295.0 192.89543 295.0 194.0L295.0 199.0C295.0 200.10457 294.10458 201.0 293.0 201.0Z" fill-rule="nonzero"/><path stroke="#000000" stroke-width="2.0" stroke-linecap="butt" stroke-opacity="0.0" clip-path="url(#id_0)" d="M103.0 270.0L103.0 261.0L339.0 261.0C340.10458 261.0 341.0 261.89542 341.0 263.0L341.0 268.0C341.0 269.10458 340.10458 270.0 339.0 270.0Z" fill-rule="nonzero"/><path fill="#34a853" clip-path="url(#id_0)" d="M103.0 270.0L103.0 261.0L339.0 261.0C340.10458 261.0 341.0 261.89542 341.0 263.0L341.0 268.0C341.0 269.10458 340.10458 270.0 339.0 270.0Z" fill-rule="nonzero"/><path stroke="#000000" stroke-width="2.0" stroke-linecap="butt" stroke-opacity="0.0" clip-path="url(#id_0)" d="M103.0 339.0L103.0 330.0L711.0 330.0C712.10455 330.0 713.0 330.89542 713.0 332.0L713.0 337.0C713.0 338.10458 712.10455 339.0 711.0 339.0Z" fill-rule="nonzero"/><path fill="#34a853" clip-path="url(#id_0)" d="M103.0 339.0L103.0 330.0L711.0 330.0C712.10455 330.0 713.0 330.89542 713.0 332.0L713.0 337.0C713.0 338.10458 712.10455 339.0 711.0 339.0Z" fill-rule="nonzero"/><path fill="#000000" d="M73.489265 113.60033L74.989265 113.4597L74.97364 113.85033Q74.97364 114.5222 75.270515 115.06908Q75.583015 115.61595 76.28614 115.92845Q76.989265 116.22533 77.958015 116.22533Q79.333015 116.22533 80.051765 115.63158Q80.78614 115.0222 80.78614 114.24095Q80.78614 113.7097 80.395515 113.25658Q80.00489 112.81908 78.270515 112.06908Q76.91114 111.49095 76.426765 111.17845Q75.645515 110.66283 75.270515 110.06908Q74.91114 109.47533 74.91114 108.7097Q74.91114 107.81908 75.395515 107.11595Q75.87989 106.3972 76.81739 106.0222Q77.75489 105.6472 78.926765 105.6472Q80.31739 105.6472 81.270515 106.11595Q82.239265 106.5847 82.676765 107.36595Q83.114265 108.1472 83.114265 108.86595Q83.114265 108.92845 83.09864 109.10033L81.62989 109.2097Q81.62989 108.72533 81.53614 108.4597Q81.37989 107.97533 81.051765 107.6472Q80.72364 107.31908 80.145515 107.13158Q79.583015 106.92845 78.864265 106.92845Q77.614265 106.92845 76.926765 107.49095Q76.395515 107.91283 76.395515 108.63158Q76.395515 109.05345 76.614265 109.38158Q76.833015 109.7097 77.395515 110.03783Q77.801765 110.25658 79.333015 110.92845Q80.56739 111.47533 81.03614 111.78783Q81.66114 112.2097 81.989265 112.80345Q82.333015 113.38158 82.333015 114.13158Q82.333015 115.06908 81.75489 115.85033Q81.19239 116.63158 80.19239 117.06908Q79.19239 117.50658 77.91114 117.50658Q75.958015 117.50658 74.72364 116.66283Q73.50489 115.80345 73.489265 113.60033ZM84.083015 117.30345L86.47364 105.85033L89.926765 105.85033Q91.16114 105.85033 91.81739 106.0222Q92.75489 106.2722 93.41114 106.8972Q94.083015 107.50658 94.41114 108.44408Q94.75489 109.36595 94.75489 110.5222Q94.75489 111.91283 94.333015 113.05345Q93.926765 114.17845 93.239265 115.05345Q92.56739 115.91283 91.833015 116.3972Q91.09864 116.88158 90.083015 117.11595Q89.31739 117.30345 88.208015 117.30345L84.083015 117.30345ZM85.87989 116.00658L87.69239 116.00658Q88.926765 116.00658 89.87989 115.7722Q90.47364 115.63158 90.895515 115.36595Q91.44239 115.00658 91.895515 114.42845Q92.489265 113.66283 92.84864 112.69408Q93.208015 111.7097 93.208015 110.4597Q93.208015 109.06908 92.72364 108.31908Q92.239265 107.56908 91.489265 107.3347Q90.926765 107.1472 89.75489 107.1472L87.739265 107.1472L85.87989 116.00658Z" fill-rule="nonzero"/><path fill="#000000" d="M64.489265 182.19803L65.989265 182.0574L65.97364 182.44803Q65.97364 183.1199 66.270515 183.66678Q66.583015 184.21365 67.28614 184.52615Q67.989265 184.82303 68.958015 184.82303Q70.333015 184.82303 71.051765 184.22928Q71.78614 183.6199 71.78614 182.83865Q71.78614 182.3074 71.395515 181.85428Q71.00489 181.41678 69.270515 180.66678Q67.91114 180.08865 67.426765 179.77615Q66.645515 179.26053 66.270515 178.66678Q65.91114 178.07303 65.91114 177.3074Q65.91114 176.41678 66.395515 175.71365Q66.87989 174.9949 67.81739 174.6199Q68.75489 174.2449 69.926765 174.2449Q71.31739 174.2449 72.270515 174.71365Q73.239265 175.1824 73.676765 175.96365Q74.114265 176.7449 74.114265 177.46365Q74.114265 177.52615 74.09864 177.69803L72.62989 177.8074Q72.62989 177.32303 72.53614 177.0574Q72.37989 176.57303 72.051765 176.2449Q71.72364 175.91678 71.145515 175.72928Q70.583015 175.52615 69.864265 175.52615Q68.614265 175.52615 67.926765 176.08865Q67.395515 176.51053 67.395515 177.22928Q67.395515 177.65115 67.614265 177.97928Q67.833015 178.3074 68.395515 178.63553Q68.801765 178.85428 70.333015 179.52615Q71.56739 180.07303 72.03614 180.38553Q72.66114 180.8074 72.989265 181.40115Q73.333015 181.97928 73.333015 182.72928Q73.333015 183.66678 72.75489 184.44803Q72.19239 185.22928 71.19239 185.66678Q70.19239 186.10428 68.91114 186.10428Q66.958015 186.10428 65.72364 185.26053Q64.50489 184.40115 64.489265 182.19803ZM75.083015 185.90115L77.47364 174.44803L80.926765 174.44803Q82.16114 174.44803 82.81739 174.6199Q83.75489 174.8699 84.41114 175.4949Q85.083015 176.10428 85.41114 177.04178Q85.75489 177.96365 85.75489 179.1199Q85.75489 180.51053 85.333015 181.65115Q84.926765 182.77615 84.239265 183.65115Q83.56739 184.51053 82.833015 184.9949Q82.09864 185.47928 81.083015 185.71365Q80.31739 185.90115 79.208015 185.90115L75.083015 185.90115ZM76.87989 184.60428L78.69239 184.60428Q79.926765 184.60428 80.87989 184.3699Q81.47364 184.22928 81.895515 183.96365Q82.44239 183.60428 82.895515 183.02615Q83.489265 182.26053 83.84864 181.29178Q84.208015 180.3074 84.208015 179.0574Q84.208015 177.66678 83.72364 176.91678Q83.239265 176.16678 82.489265 175.9324Q81.926765 175.7449 80.75489 175.7449L78.739265 175.7449L76.87989 184.60428ZM87.301765 185.90115Q87.520515 184.8699 87.91114 184.1824Q88.301765 183.4949 88.94239 182.8699Q89.583015 182.2449 91.41114 180.79178Q92.520515 179.90115 92.926765 179.47928Q93.50489 178.8699 93.770515 178.29178Q93.958015 177.88553 93.958015 177.41678Q93.958015 176.63553 93.395515 176.08865Q92.833015 175.52615 92.020515 175.52615Q91.22364 175.52615 90.614265 176.08865Q90.020515 176.65115 89.75489 177.88553L88.37989 177.6824Q88.583015 176.15115 89.551765 175.27615Q90.53614 174.40115 92.00489 174.40115Q92.97364 174.40115 93.770515 174.8074Q94.56739 175.21365 94.958015 175.94803Q95.364265 176.6824 95.364265 177.46365Q95.364265 178.60428 94.551765 179.65115Q94.051765 180.3074 91.614265 182.2449Q90.56739 183.07303 90.051765 183.60428Q89.53614 184.13553 89.28614 184.60428L94.41114 184.60428L94.12989 185.90115L87.301765 185.90115Z" fill-rule="nonzero"/><path fill="#000000" d="M31.489264 250.79573L32.989265 250.6551L32.97364 251.04573Q32.97364 251.7176 33.270515 252.26448Q33.583015 252.81136 34.28614 253.12386Q34.989265 253.42073 35.958015 253.42073Q37.333015 253.42073 38.051765 252.82698Q38.78614 252.2176 38.78614 251.43636Q38.78614 250.9051 38.395515 250.45198Q38.00489 250.01448 36.270515 249.26448Q34.91114 248.68636 34.426765 248.37386Q33.645515 247.85823 33.270515 247.26448Q32.91114 246.67073 32.91114 245.9051Q32.91114 245.01448 33.395515 244.31136Q33.87989 243.5926 34.81739 243.2176Q35.75489 242.8426 36.926765 242.8426Q38.31739 242.8426 39.270515 243.31136Q40.239265 243.7801 40.676765 244.56136Q41.114265 245.3426 41.114265 246.06136Q41.114265 246.12386 41.09864 246.29573L39.62989 246.4051Q39.62989 245.92073 39.53614 245.6551Q39.37989 245.17073 39.051765 244.8426Q38.72364 244.51448 38.145515 244.32698Q37.583015 244.12386 36.864265 244.12386Q35.614265 244.12386 34.926765 244.68636Q34.395515 245.10823 34.395515 245.82698Q34.395515 246.24886 34.614265 246.57698Q34.833015 246.9051 35.395515 247.23323Q35.801765 247.45198 37.333015 248.12386Q38.56739 248.67073 39.03614 248.98323Q39.66114 249.4051 39.989265 249.99886Q40.333015 250.57698 40.333015 251.32698Q40.333015 252.26448 39.75489 253.04573Q39.19239 253.82698 38.19239 254.26448Q37.19239 254.70198 35.91114 254.70198Q33.958015 254.70198 32.72364 253.85823Q31.504889 252.99886 31.489264 250.79573ZM42.083015 254.49886L44.47364 243.04573L47.926765 243.04573Q49.16114 243.04573 49.81739 243.2176Q50.75489 243.4676 51.41114 244.0926Q52.083015 244.70198 52.41114 245.63948Q52.75489 246.56136 52.75489 247.7176Q52.75489 249.10823 52.333015 250.24886Q51.926765 251.37386 51.239265 252.24886Q50.56739 253.10823 49.833015 253.5926Q49.09864 254.07698 48.083015 254.31136Q47.31739 254.49886 46.208015 254.49886L42.083015 254.49886ZM43.87989 253.20198L45.69239 253.20198Q46.926765 253.20198 47.87989 252.9676Q48.47364 252.82698 48.895515 252.56136Q49.44239 252.20198 49.895515 251.62386Q50.489265 250.85823 50.84864 249.88948Q51.208015 248.9051 51.208015 247.6551Q51.208015 246.26448 50.72364 245.51448Q50.239265 244.76448 49.489265 244.5301Q48.926765 244.3426 47.75489 244.3426L45.739265 244.3426L43.87989 253.20198ZM52.84864 254.49886L58.333015 248.70198L55.083015 243.04573L56.770515 243.04573L58.25489 245.63948Q58.833015 246.6551 58.926765 246.82698Q59.12989 247.2176 59.364265 247.74886Q59.94239 246.9676 61.16114 245.68636L63.676765 243.04573L65.676765 243.04573L60.12989 248.95198L63.270515 254.49886L61.614265 254.49886L59.75489 251.13948Q59.47364 250.6551 59.114265 249.87386Q58.69239 250.45198 58.083015 251.0926L54.895515 254.49886L52.84864 254.49886ZM65.00489 254.49886L67.395515 243.04573L68.926765 243.04573L66.81739 253.20198L72.75489 253.20198L72.489265 254.49886L65.00489 254.49886ZM77.22364 254.49886L79.03614 245.8426Q77.864265 246.76448 75.739265 247.32698L76.00489 246.04573Q77.051765 245.62386 78.083015 244.95198Q79.114265 244.26448 79.62989 243.74886Q79.94239 243.43636 80.22364 242.99886L81.03614 242.99886L78.645515 254.49886L77.22364 254.49886ZM83.28614 254.49886L83.62989 252.88948L85.22364 252.88948L84.87989 254.49886L83.28614 254.49886ZM87.50489 250.73323Q87.50489 249.2801 87.926765 247.7801Q88.364265 246.2801 88.895515 245.38948Q89.426765 244.48323 89.989265 243.98323Q90.56739 243.4676 91.114265 243.23323Q91.676765 242.99886 92.34864 242.99886Q93.66114 242.99886 94.53614 243.98323Q95.41114 244.95198 95.41114 246.79573Q95.41114 248.68636 94.801765 250.54573Q94.083015 252.74886 92.801765 253.85823Q91.81739 254.70198 90.56739 254.70198Q89.270515 254.70198 88.37989 253.68636Q87.50489 252.67073 87.50489 250.73323ZM88.864265 251.0926Q88.864265 252.1551 89.22364 252.74886Q89.69239 253.56136 90.62989 253.56136Q91.458015 253.56136 92.12989 252.82698Q93.09864 251.7801 93.583015 249.76448Q94.06739 247.73323 94.06739 246.45198Q94.06739 245.2176 93.59864 244.67073Q93.12989 244.12386 92.34864 244.12386Q91.78614 244.12386 91.301765 244.42073Q90.81739 244.70198 90.364265 245.4051Q89.739265 246.4051 89.270515 248.37386Q88.864265 250.06136 88.864265 251.0926Z" fill-rule="nonzero"/><path fill="#000000" d="M40.051765 323.09656L42.458015 311.64343L47.239265 311.64343Q48.47364 311.64343 49.09864 311.92468Q49.72364 312.20593 50.12989 312.90906Q50.53614 313.59656 50.53614 314.45593Q50.53614 315.15906 50.239265 315.89343Q49.958015 316.6278 49.50489 317.11218Q49.06739 317.58093 48.614265 317.83093Q48.16114 318.0653 47.645515 318.1903Q46.551765 318.4403 45.426765 318.4403L42.551765 318.4403L41.583015 323.09656L40.051765 323.09656ZM42.833015 317.14343L45.34864 317.14343Q46.81739 317.14343 47.50489 316.83093Q48.19239 316.51843 48.59864 315.8778Q49.020515 315.22156 49.020515 314.48718Q49.020515 313.92468 48.801765 313.58093Q48.583015 313.22156 48.176765 313.04968Q47.78614 312.8778 46.66114 312.8778L43.72364 312.8778L42.833015 317.14343ZM51.28614 323.09656L53.676765 311.64343L55.208015 311.64343L52.81739 323.09656L51.28614 323.09656ZM64.020515 319.0653L65.53614 319.26843Q64.81739 321.2528 63.44239 322.28406Q62.06739 323.29968 60.34864 323.29968Q58.270515 323.29968 57.03614 322.01843Q55.81739 320.73718 55.81739 318.36218Q55.81739 315.26843 57.676765 313.2528Q59.333015 311.4403 61.801765 311.4403Q63.614265 311.4403 64.739265 312.42468Q65.87989 313.39343 66.051765 315.04968L64.62989 315.17468Q64.395515 313.9403 63.69239 313.33093Q62.989265 312.70593 61.864265 312.70593Q59.770515 312.70593 58.47364 314.58093Q57.34864 316.1903 57.34864 318.39343Q57.34864 320.15906 58.208015 321.09656Q59.083015 322.01843 60.47364 322.01843Q61.66114 322.01843 62.614265 321.2528Q63.583015 320.47156 64.020515 319.0653ZM72.489265 322.0653Q71.75489 322.6903 71.06739 322.98718Q70.395515 323.28406 69.62989 323.28406Q68.47364 323.28406 67.770515 322.61218Q67.06739 321.92468 67.06739 320.8778Q67.06739 320.17468 67.37989 319.64343Q67.708015 319.11218 68.22364 318.78406Q68.75489 318.45593 69.50489 318.3153Q69.989265 318.22156 71.31739 318.17468Q72.645515 318.11218 73.22364 317.89343Q73.395515 317.3153 73.395515 316.92468Q73.395515 316.4403 73.03614 316.15906Q72.53614 315.76843 71.59864 315.76843Q70.708015 315.76843 70.12989 316.15906Q69.56739 316.54968 69.31739 317.28406L67.87989 317.15906Q68.31739 315.92468 69.270515 315.26843Q70.22364 314.61218 71.66114 314.61218Q73.208015 314.61218 74.09864 315.34656Q74.78614 315.89343 74.78614 316.76843Q74.78614 317.42468 74.59864 318.29968L74.12989 320.36218Q73.91114 321.34656 73.91114 321.97156Q73.91114 322.36218 74.083015 323.09656L72.66114 323.09656Q72.53614 322.6903 72.489265 322.0653ZM73.020515 318.89343Q72.72364 319.0028 72.37989 319.0653Q72.03614 319.1278 71.239265 319.20593Q70.00489 319.3153 69.489265 319.48718Q68.989265 319.64343 68.72364 320.01843Q68.47364 320.3778 68.47364 320.83093Q68.47364 321.42468 68.87989 321.8153Q69.301765 322.1903 70.051765 322.1903Q70.75489 322.1903 71.395515 321.8153Q72.051765 321.4403 72.426765 320.78406Q72.801765 320.11218 73.020515 318.89343ZM76.489265 319.39343L77.989265 319.2528L77.97364 319.64343Q77.97364 320.3153 78.270515 320.86218Q78.583015 321.40906 79.28614 321.72156Q79.989265 322.01843 80.958015 322.01843Q82.333015 322.01843 83.051765 321.42468Q83.78614 320.8153 83.78614 320.03406Q83.78614 319.5028 83.395515 319.04968Q83.00489 318.61218 81.270515 317.86218Q79.91114 317.28406 79.426765 316.97156Q78.645515 316.45593 78.270515 315.86218Q77.91114 315.26843 77.91114 314.5028Q77.91114 313.61218 78.395515 312.90906Q78.87989 312.1903 79.81739 311.8153Q80.75489 311.4403 81.926765 311.4403Q83.31739 311.4403 84.270515 311.90906Q85.239265 312.3778 85.676765 313.15906Q86.114265 313.9403 86.114265 314.65906Q86.114265 314.72156 86.09864 314.89343L84.62989 315.0028Q84.62989 314.51843 84.53614 314.2528Q84.37989 313.76843 84.051765 313.4403Q83.72364 313.11218 83.145515 312.92468Q82.583015 312.72156 81.864265 312.72156Q80.614265 312.72156 79.926765 313.28406Q79.395515 313.70593 79.395515 314.42468Q79.395515 314.84656 79.614265 315.17468Q79.833015 315.5028 80.395515 315.83093Q80.801765 316.04968 82.333015 316.72156Q83.56739 317.26843 84.03614 317.58093Q84.66114 318.0028 84.989265 318.59656Q85.333015 319.17468 85.333015 319.92468Q85.333015 320.86218 84.75489 321.64343Q84.19239 322.42468 83.19239 322.86218Q82.19239 323.29968 80.91114 323.29968Q78.958015 323.29968 77.72364 322.45593Q76.50489 321.59656 76.489265 319.39343ZM87.145515 319.9403Q87.145515 317.51843 88.583015 315.92468Q89.75489 314.61218 91.676765 314.61218Q93.176765 314.61218 94.083015 315.54968Q95.00489 316.48718 95.00489 318.08093Q95.00489 319.5028 94.426765 320.73718Q93.84864 321.97156 92.78614 322.6278Q91.72364 323.28406 90.53614 323.28406Q89.56739 323.28406 88.770515 322.8778Q87.989265 322.45593 87.56739 321.70593Q87.145515 320.9403 87.145515 319.9403ZM88.56739 319.79968Q88.56739 320.97156 89.12989 321.58093Q89.69239 322.1903 90.551765 322.1903Q91.00489 322.1903 91.44239 322.0028Q91.895515 321.8153 92.270515 321.4403Q92.66114 321.0653 92.926765 320.59656Q93.208015 320.11218 93.364265 319.54968Q93.614265 318.78406 93.614265 318.0653Q93.614265 316.9403 93.03614 316.33093Q92.47364 315.70593 91.614265 315.70593Q90.958015 315.70593 90.41114 316.01843Q89.864265 316.33093 89.41114 316.9403Q88.97364 317.54968 88.770515 318.36218Q88.56739 319.17468 88.56739 319.79968Z" fill-rule="nonzero"/><path fill="#000000" d="M100.364265 376.66562Q100.364265 375.13437 100.676765 374.2125Q100.989265 373.275 101.59864 372.775Q102.22364 372.275 103.16114 372.275Q103.84864 372.275 104.364265 372.55624Q104.895515 372.8375 105.239265 373.36874Q105.583015 373.88437 105.770515 374.63437Q105.958015 375.38437 105.958015 376.66562Q105.958015 378.18124 105.645515 379.10312Q105.34864 380.025 104.72364 380.54062Q104.114265 381.04062 103.16114 381.04062Q101.926765 381.04062 101.208015 380.15Q100.364265 379.0875 100.364265 376.66562ZM101.44239 376.66562Q101.44239 378.775 101.94239 379.47812Q102.44239 380.18124 103.16114 380.18124Q103.895515 380.18124 104.37989 379.47812Q104.87989 378.775 104.87989 376.66562Q104.87989 374.54062 104.37989 373.85312Q103.895515 373.15 103.145515 373.15Q102.426765 373.15 101.989265 373.75937Q101.44239 374.54062 101.44239 376.66562Z" fill-rule="nonzero"/><path fill="#000000" d="M238.55879 380.9L237.51192 380.9L237.51192 374.18124Q237.12129 374.54062 236.49629 374.91562Q235.88692 375.275 235.40254 375.44687L235.40254 374.43124Q236.27754 374.00937 236.93379 373.43124Q237.60567 372.8375 237.88692 372.275L238.55879 372.275L238.55879 380.9ZM241.59004 376.66562Q241.59004 375.13437 241.90254 374.2125Q242.21504 373.275 242.82442 372.775Q243.44942 372.275 244.38692 372.275Q245.07442 372.275 245.59004 372.55624Q246.12129 372.8375 246.46504 373.36874Q246.80879 373.88437 246.99629 374.63437Q247.18379 375.38437 247.18379 376.66562Q247.18379 378.18124 246.87129 379.10312Q246.57442 380.025 245.94942 380.54062Q245.34004 381.04062 244.38692 381.04062Q243.15254 381.04062 242.43379 380.15Q241.59004 379.0875 241.59004 376.66562ZM242.66817 376.66562Q242.66817 378.775 243.16817 379.47812Q243.66817 380.18124 244.38692 380.18124Q245.12129 380.18124 245.60567 379.47812Q246.10567 378.775 246.10567 376.66562Q246.10567 374.54062 245.60567 373.85312Q245.12129 373.15 244.37129 373.15Q243.65254 373.15 243.21504 373.75937Q242.66817 374.54062 242.66817 376.66562ZM248.59004 376.66562Q248.59004 375.13437 248.90254 374.2125Q249.21504 373.275 249.82442 372.775Q250.44942 372.275 251.38692 372.275Q252.07442 372.275 252.59004 372.55624Q253.12129 372.8375 253.46504 373.36874Q253.80879 373.88437 253.99629 374.63437Q254.18379 375.38437 254.18379 376.66562Q254.18379 378.18124 253.87129 379.10312Q253.57442 380.025 252.94942 380.54062Q252.34004 381.04062 251.38692 381.04062Q250.15254 381.04062 249.43379 380.15Q248.59004 379.0875 248.59004 376.66562ZM249.66817 376.66562Q249.66817 378.775 250.16817 379.47812Q250.66817 380.18124 251.38692 380.18124Q252.12129 380.18124 252.60567 379.47812Q253.10567 378.775 253.10567 376.66562Q253.10567 374.54062 252.60567 373.85312Q252.12129 373.15 251.37129 373.15Q250.65254 373.15 250.21504 373.75937Q249.66817 374.54062 249.66817 376.66562Z" fill-rule="nonzero"/><path fill="#000000" d="M381.3627 379.88437L381.3627 380.9L375.6752 380.9Q375.6752 380.525 375.8002 380.16562Q376.01895 379.5875 376.4877 379.025Q376.97208 378.4625 377.87833 377.72812Q379.28458 376.57187 379.76895 375.9Q380.26895 375.22812 380.26895 374.63437Q380.26895 374.00937 379.81583 373.5875Q379.3627 373.15 378.64395 373.15Q377.87833 373.15 377.4252 373.60312Q376.97208 374.05624 376.95645 374.86874L375.87833 374.75937Q375.9877 373.54062 376.70645 372.91562Q377.44083 372.275 378.6752 372.275Q379.90958 372.275 380.62833 372.9625Q381.34708 373.65 381.34708 374.66562Q381.34708 375.18124 381.12833 375.68124Q380.9252 376.16562 380.4252 376.72812Q379.94083 377.275 378.81583 378.22812Q377.8627 379.025 377.58145 379.32187Q377.31583 379.60312 377.14395 379.88437L381.3627 379.88437ZM382.81583 376.66562Q382.81583 375.13437 383.12833 374.2125Q383.44083 373.275 384.0502 372.775Q384.6752 372.275 385.6127 372.275Q386.3002 372.275 386.81583 372.55624Q387.34708 372.8375 387.69083 373.36874Q388.03458 373.88437 388.22208 374.63437Q388.40958 375.38437 388.40958 376.66562Q388.40958 378.18124 388.09708 379.10312Q387.8002 380.025 387.1752 380.54062Q386.56583 381.04062 385.6127 381.04062Q384.37833 381.04062 383.65958 380.15Q382.81583 379.0875 382.81583 376.66562ZM383.89395 376.66562Q383.89395 378.775 384.39395 379.47812Q384.89395 380.18124 385.6127 380.18124Q386.34708 380.18124 386.83145 379.47812Q387.33145 378.775 387.33145 376.66562Q387.33145 374.54062 386.83145 373.85312Q386.34708 373.15 385.59708 373.15Q384.87833 373.15 384.44083 373.75937Q383.89395 374.54062 383.89395 376.66562ZM389.81583 376.66562Q389.81583 375.13437 390.12833 374.2125Q390.44083 373.275 391.0502 372.775Q391.6752 372.275 392.6127 372.275Q393.3002 372.275 393.81583 372.55624Q394.34708 372.8375 394.69083 373.36874Q395.03458 373.88437 395.22208 374.63437Q395.40958 375.38437 395.40958 376.66562Q395.40958 378.18124 395.09708 379.10312Q394.8002 380.025 394.1752 380.54062Q393.56583 381.04062 392.6127 381.04062Q391.37833 381.04062 390.65958 380.15Q389.81583 379.0875 389.81583 376.66562ZM390.89395 376.66562Q390.89395 378.775 391.39395 379.47812Q391.89395 380.18124 392.6127 380.18124Q393.34708 380.18124 393.83145 379.47812Q394.33145 378.775 394.33145 376.66562Q394.33145 374.54062 393.83145 373.85312Q393.34708 373.15 392.59708 373.15Q391.87833 373.15 391.44083 373.75937Q390.89395 374.54062 390.89395 376.66562Z" fill-rule="nonzero"/><path fill="#000000" d="M517.0416 378.63437L518.1041 378.49374Q518.276 379.38437 518.7135 379.79062Q519.151 380.18124 519.776 380.18124Q520.526 380.18124 521.0416 379.66562Q521.55725 379.15 521.55725 378.38437Q521.55725 377.66562 521.0729 377.19687Q520.6041 376.7125 519.86975 376.7125Q519.5729 376.7125 519.11975 376.8375L519.24475 375.9Q519.3541 375.91562 519.4166 375.91562Q520.0885 375.91562 520.61975 375.57187Q521.1666 375.2125 521.1666 374.47812Q521.1666 373.9 520.776 373.525Q520.3854 373.13437 519.7604 373.13437Q519.151 373.13437 518.7291 373.525Q518.3229 373.91562 518.2135 374.68124L517.151 374.49374Q517.3385 373.44687 518.026 372.86874Q518.7135 372.275 519.7291 372.275Q520.43225 372.275 521.026 372.5875Q521.61975 372.88437 521.93225 373.4Q522.24475 373.91562 522.24475 374.50937Q522.24475 375.05624 521.9479 375.525Q521.651 375.97812 521.0729 376.24374Q521.8229 376.41562 522.24475 376.97812Q522.6666 377.525 522.6666 378.36874Q522.6666 379.49374 521.8385 380.275Q521.026 381.05624 519.776 381.05624Q518.651 381.05624 517.901 380.38437Q517.151 379.69687 517.0416 378.63437ZM524.0416 376.66562Q524.0416 375.13437 524.3541 374.2125Q524.6666 373.275 525.276 372.775Q525.901 372.275 526.8385 372.275Q527.526 372.275 528.0416 372.55624Q528.5729 372.8375 528.9166 373.36874Q529.2604 373.88437 529.4479 374.63437Q529.6354 375.38437 529.6354 376.66562Q529.6354 378.18124 529.3229 379.10312Q529.026 380.025 528.401 380.54062Q527.7916 381.04062 526.8385 381.04062Q525.6041 381.04062 524.8854 380.15Q524.0416 379.0875 524.0416 376.66562ZM525.11975 376.66562Q525.11975 378.775 525.61975 379.47812Q526.11975 380.18124 526.8385 380.18124Q527.5729 380.18124 528.05725 379.47812Q528.55725 378.775 528.55725 376.66562Q528.55725 374.54062 528.05725 373.85312Q527.5729 373.15 526.8229 373.15Q526.1041 373.15 525.6666 373.75937Q525.11975 374.54062 525.11975 376.66562ZM531.0416 376.66562Q531.0416 375.13437 531.3541 374.2125Q531.6666 373.275 532.276 372.775Q532.901 372.275 533.8385 372.275Q534.526 372.275 535.0416 372.55624Q535.5729 372.8375 535.9166 373.36874Q536.2604 373.88437 536.4479 374.63437Q536.6354 375.38437 536.6354 376.66562Q536.6354 378.18124 536.3229 379.10312Q536.026 380.025 535.401 380.54062Q534.7916 381.04062 533.8385 381.04062Q532.6041 381.04062 531.8854 380.15Q531.0416 379.0875 531.0416 376.66562ZM532.11975 376.66562Q532.11975 378.775 532.61975 379.47812Q533.11975 380.18124 533.8385 380.18124Q534.5729 380.18124 535.05725 379.47812Q535.55725 378.775 535.55725 376.66562Q535.55725 374.54062 535.05725 373.85312Q534.5729 373.15 533.8229 373.15Q533.1041 373.15 532.6666 373.75937Q532.11975 374.54062 532.11975 376.66562Z" fill-rule="nonzero"/><path fill="#000000" d="M661.6424 380.9L661.6424 378.8375L657.92365 378.8375L657.92365 377.86874L661.8455 372.30624L662.7049 372.30624L662.7049 377.86874L663.86115 377.86874L663.86115 378.8375L662.7049 378.8375L662.7049 380.9L661.6424 380.9ZM661.6424 377.86874L661.6424 374.00937L658.9549 377.86874L661.6424 377.86874ZM665.2674 376.66562Q665.2674 375.13437 665.5799 374.2125Q665.8924 373.275 666.5018 372.775Q667.1268 372.275 668.0643 372.275Q668.7518 372.275 669.2674 372.55624Q669.79865 372.8375 670.1424 373.36874Q670.48615 373.88437 670.67365 374.63437Q670.86115 375.38437 670.86115 376.66562Q670.86115 378.18124 670.54865 379.10312Q670.2518 380.025 669.6268 380.54062Q669.0174 381.04062 668.0643 381.04062Q666.8299 381.04062 666.11115 380.15Q665.2674 379.0875 665.2674 376.66562ZM666.3455 376.66562Q666.3455 378.775 666.8455 379.47812Q667.3455 380.18124 668.0643 380.18124Q668.79865 380.18124 669.283 379.47812Q669.783 378.775 669.783 376.66562Q669.783 374.54062 669.283 373.85312Q668.79865 373.15 668.04865 373.15Q667.3299 373.15 666.8924 373.75937Q666.3455 374.54062 666.3455 376.66562ZM672.2674 376.66562Q672.2674 375.13437 672.5799 374.2125Q672.8924 373.275 673.5018 372.775Q674.1268 372.275 675.0643 372.275Q675.7518 372.275 676.2674 372.55624Q676.79865 372.8375 677.1424 373.36874Q677.48615 373.88437 677.67365 374.63437Q677.86115 375.38437 677.86115 376.66562Q677.86115 378.18124 677.54865 379.10312Q677.2518 380.025 676.6268 380.54062Q676.0174 381.04062 675.0643 381.04062Q673.8299 381.04062 673.11115 380.15Q672.2674 379.0875 672.2674 376.66562ZM673.3455 376.66562Q673.3455 378.775 673.8455 379.47812Q674.3455 380.18124 675.0643 380.18124Q675.79865 380.18124 676.283 379.47812Q676.783 378.775 676.783 376.66562Q676.783 374.54062 676.283 373.85312Q675.79865 373.15 675.04865 373.15Q674.3299 373.15 673.8924 373.75937Q673.3455 374.54062 673.3455 376.66562Z" fill-rule="nonzero"/><path fill="#000000" d="M799.49316 378.65L800.60254 378.55624Q800.72754 379.36874 801.16504 379.775Q801.61816 380.18124 802.2588 380.18124Q803.0088 380.18124 803.54004 379.60312Q804.0713 379.025 804.0713 378.0875Q804.0713 377.18124 803.55566 376.66562Q803.05566 376.13437 802.22754 376.13437Q801.72754 376.13437 801.30566 376.36874Q800.8994 376.60312 800.66504 376.9625L799.68066 376.8375L800.5088 372.43124L804.79004 372.43124L804.79004 373.43124L801.35254 373.43124L800.8994 375.74374Q801.66504 375.19687 802.5088 375.19687Q803.6338 375.19687 804.3994 375.97812Q805.18066 376.75937 805.18066 377.99374Q805.18066 379.15 804.5088 380.00937Q803.68066 381.04062 802.2588 381.04062Q801.0869 381.04062 800.3369 380.38437Q799.60254 379.72812 799.49316 378.65ZM806.49316 376.66562Q806.49316 375.13437 806.80566 374.2125Q807.11816 373.275 807.72754 372.775Q808.35254 372.275 809.29004 372.275Q809.97754 372.275 810.49316 372.55624Q811.0244 372.8375 811.36816 373.36874Q811.7119 373.88437 811.8994 374.63437Q812.0869 375.38437 812.0869 376.66562Q812.0869 378.18124 811.7744 379.10312Q811.47754 380.025 810.85254 380.54062Q810.24316 381.04062 809.29004 381.04062Q808.05566 381.04062 807.3369 380.15Q806.49316 379.0875 806.49316 376.66562ZM807.5713 376.66562Q807.5713 378.775 808.0713 379.47812Q808.5713 380.18124 809.29004 380.18124Q810.0244 380.18124 810.5088 379.47812Q811.0088 378.775 811.0088 376.66562Q811.0088 374.54062 810.5088 373.85312Q810.0244 373.15 809.2744 373.15Q808.55566 373.15 808.11816 373.75937Q807.5713 374.54062 807.5713 376.66562ZM813.49316 376.66562Q813.49316 375.13437 813.80566 374.2125Q814.11816 373.275 814.72754 372.775Q815.35254 372.275 816.29004 372.275Q816.97754 372.275 817.49316 372.55624Q818.0244 372.8375 818.36816 373.36874Q818.7119 373.88437 818.8994 374.63437Q819.0869 375.38437 819.0869 376.66562Q819.0869 378.18124 818.7744 379.10312Q818.47754 380.025 817.85254 380.54062Q817.24316 381.04062 816.29004 381.04062Q815.05566 381.04062 814.3369 380.15Q813.49316 379.0875 813.49316 376.66562ZM814.5713 376.66562Q814.5713 378.775 815.0713 379.47812Q815.5713 380.18124 816.29004 380.18124Q817.0244 380.18124 817.5088 379.47812Q818.0088 378.775 818.0088 376.66562Q818.0088 374.54062 817.5088 373.85312Q817.0244 373.15 816.2744 373.15Q815.55566 373.15 815.11816 373.75937Q814.5713 374.54062 814.5713 376.66562Z" fill-rule="nonzero"/><path fill="#4285f4" d="M40.5 24.6C40.5 24.047716 40.947716 23.6 41.5 23.6L51.5 23.6C52.052284 23.6 52.5 24.047716 52.5 24.6L52.5 34.6C52.5 35.152287 52.052284 35.6 51.5 35.6L41.5 35.6C40.947716 35.6 40.5 35.152287 40.5 34.6Z" fill-rule="nonzero"/><path fill="#1a1a1a" d="M64.140625 35.1L66.25 24.943748L62.5 24.943748L62.765625 23.646873L71.78125 23.646873L71.515625 24.943748L67.78125 24.943748L65.671875 35.1L64.140625 35.1ZM77.125 32.271873L78.5 32.4125Q78.203125 33.44375 77.140625 34.365623Q76.078125 35.2875 74.59375 35.2875Q73.671875 35.2875 72.90625 34.865623Q72.140625 34.428123 71.734375 33.615623Q71.328125 32.803123 71.328125 31.771873Q71.328125 30.412498 71.953125 29.131248Q72.59375 27.849998 73.59375 27.240623Q74.59375 26.615623 75.75 26.615623Q77.234375 26.615623 78.125 27.537498Q79.015625 28.459373 79.015625 30.053123Q79.015625 30.662498 78.90625 31.303123L72.796875 31.303123Q72.765625 31.537498 72.765625 31.740623Q72.765625 32.896873 73.296875 33.521873Q73.828125 34.13125 74.609375 34.13125Q75.328125 34.13125 76.03125 33.6625Q76.734375 33.178123 77.125 32.271873ZM73.015625 30.224998L77.671875 30.224998Q77.6875 30.006248 77.6875 29.912498Q77.6875 28.849998 77.15625 28.287498Q76.625 27.709373 75.78125 27.709373Q74.875 27.709373 74.125 28.334373Q73.390625 28.959373 73.015625 30.224998ZM79.46875 35.1L83.09375 30.881248L81.015625 26.803123L82.578125 26.803123L83.28125 28.271873Q83.671875 29.099998 83.984375 29.865623L86.375 26.803123L88.109375 26.803123L84.625 30.990623L86.71875 35.1L85.15625 35.1L84.328125 33.4125Q84.0625 32.865623 83.71875 32.06875L81.25 35.1L79.46875 35.1ZM91.34375 33.94375L91.109375 35.115623Q90.59375 35.240623 90.125 35.240623Q89.28125 35.240623 88.78125 34.81875Q88.40625 34.50625 88.40625 33.975Q88.40625 33.69375 88.609375 32.709373L89.609375 27.896873L88.5 27.896873L88.71875 26.803123L89.84375 26.803123L90.265625 24.756248L91.890625 23.787498L91.25 26.803123L92.640625 26.803123L92.40625 27.896873L91.03125 27.896873L90.0625 32.475Q89.890625 33.35 89.890625 33.521873Q89.890625 33.771873 90.03125 33.9125Q90.171875 34.0375 90.5 34.0375Q90.96875 34.0375 91.34375 33.94375ZM92.25 31.662498L92.546875 30.240623L96.859375 30.240623L96.5625 31.662498L92.25 31.662498ZM100.140625 35.1L102.25 24.943748L98.5 24.943748L98.765625 23.646873L107.78125 23.646873L107.515625 24.943748L103.78125 24.943748L101.671875 35.1L100.140625 35.1ZM107.28125 31.943748Q107.28125 29.521873 108.71875 27.928123Q109.890625 26.615623 111.8125 26.615623Q113.3125 26.615623 114.21875 27.553123Q115.140625 28.490623 115.140625 30.084373Q115.140625 31.506248 114.5625 32.740623Q113.984375 33.975 112.921875 34.63125Q111.859375 35.2875 110.671875 35.2875Q109.703125 35.2875 108.90625 34.88125Q108.125 34.459373 107.703125 33.709373Q107.28125 32.94375 107.28125 31.943748ZM108.703125 31.803123Q108.703125 32.975 109.265625 33.584373Q109.828125 34.19375 110.6875 34.19375Q111.140625 34.19375 111.578125 34.00625Q112.03125 33.81875 112.40625 33.44375Q112.796875 33.06875 113.0625 32.6Q113.34375 32.115623 113.5 31.553123Q113.75 30.787498 113.75 30.068748Q113.75 28.943748 113.171875 28.334373Q112.609375 27.709373 111.75 27.709373Q111.09375 27.709373 110.546875 28.021873Q110.0 28.334373 109.546875 28.943748Q109.109375 29.553123 108.90625 30.365623Q108.703125 31.178123 108.703125 31.803123ZM116.25 31.662498L116.546875 30.240623L120.859375 30.240623L120.5625 31.662498L116.25 31.662498ZM121.21875 35.1L123.609375 23.646873L127.0625 23.646873Q128.29688 23.646873 128.95312 23.818748Q129.89062 24.068748 130.54688 24.693748Q131.21875 25.303123 131.54688 26.240623Q131.89062 27.162498 131.89062 28.318748Q131.89062 29.709373 131.46875 30.849998Q131.0625 31.974998 130.375 32.85Q129.70312 33.709373 128.96875 34.19375Q128.23438 34.678123 127.21875 34.9125Q126.453125 35.1 125.34375 35.1L121.21875 35.1ZM123.015625 33.803123L124.828125 33.803123Q126.0625 33.803123 127.015625 33.56875Q127.609375 33.428123 128.03125 33.1625Q128.57812 32.803123 129.03125 32.225Q129.625 31.459373 129.98438 30.490623Q130.34375 29.506248 130.34375 28.256248Q130.34375 26.865623 129.85938 26.115623Q129.375 25.365623 128.625 25.131248Q128.0625 24.943748 126.890625 24.943748L124.875 24.943748L123.015625 33.803123ZM133.03125 35.1L134.76562 26.803123L136.01562 26.803123L135.67188 28.490623Q136.3125 27.537498 136.92188 27.084373Q137.53125 26.615623 138.17188 26.615623Q138.59375 26.615623 139.21875 26.912498L138.64062 28.224998Q138.26562 27.959373 137.82812 27.959373Q137.09375 27.959373 136.3125 28.787498Q135.53125 29.615623 135.07812 31.771873L134.375 35.1L133.03125 35.1ZM143.625 34.06875Q142.89062 34.69375 142.20312 34.990623Q141.53125 35.2875 140.76562 35.2875Q139.60938 35.2875 138.90625 34.615623Q138.20312 33.928123 138.20312 32.88125Q138.20312 32.178123 138.51562 31.646873Q138.84375 31.115623 139.35938 30.787498Q139.89062 30.459373 140.64062 30.318748Q141.125 30.224998 142.45312 30.178123Q143.78125 30.115623 144.35938 29.896873Q144.53125 29.318748 144.53125 28.928123Q144.53125 28.443748 144.17188 28.162498Q143.67188 27.771873 142.73438 27.771873Q141.84375 27.771873 141.26562 28.162498Q140.70312 28.553123 140.45312 29.287498L139.01562 29.162498Q139.45312 27.928123 140.40625 27.271873Q141.35938 26.615623 142.79688 26.615623Q144.34375 26.615623 145.23438 27.349998Q145.92188 27.896873 145.92188 28.771873Q145.92188 29.428123 145.73438 30.303123L145.26562 32.365623Q145.04688 33.35 145.04688 33.975Q145.04688 34.365623 145.21875 35.1L143.79688 35.1Q143.67188 34.69375 143.625 34.06875ZM144.15625 30.896873Q143.85938 31.006248 143.51562 31.068748Q143.17188 31.131248 142.375 31.209373Q141.14062 31.318748 140.625 31.490623Q140.125 31.646873 139.85938 32.021873Q139.60938 32.38125 139.60938 32.834373Q139.60938 33.428123 140.01562 33.81875Q140.4375 34.19375 141.1875 34.19375Q141.89062 34.19375 142.53125 33.81875Q143.1875 33.44375 143.5625 32.7875Q143.9375 32.115623 144.15625 30.896873ZM148.60938 35.1L147.75 26.803123L149.10938 26.803123L149.48438 30.521873L149.625 32.615623Q149.64062 32.85 149.67188 33.56875Q149.90625 32.771873 150.0625 32.35Q150.23438 31.912498 150.59375 31.131248L152.57812 26.803123L154.10938 26.803123L154.39062 30.943748Q154.45312 31.896873 154.46875 33.475Q154.85938 32.428123 155.73438 30.568748L157.51562 26.803123L158.9375 26.803123L154.875 35.1L153.40625 35.1L153.09375 30.224998Q153.0625 29.771873 153.04688 28.459373Q152.73438 29.303123 152.29688 30.271873L150.09375 35.1L148.60938 35.1ZM158.04688 25.240623L158.375 23.646873L159.78125 23.646873L159.45312 25.240623L158.04688 25.240623ZM155.98438 35.1L157.71875 26.803123L159.125 26.803123L157.39062 35.1L155.98438 35.1ZM160.03125 35.1L161.76562 26.803123L163.04688 26.803123L162.75 28.240623Q163.57812 27.396873 164.29688 27.006248Q165.03125 26.615623 165.79688 26.615623Q166.79688 26.615623 167.375 27.162498Q167.95312 27.709373 167.95312 28.615623Q167.95312 29.084373 167.75 30.068748L166.6875 35.1L165.28125 35.1L166.375 29.834373Q166.54688 29.068748 166.54688 28.709373Q166.54688 28.287498 166.25 28.037498Q165.96875 27.771873 165.4375 27.771873Q164.34375 27.771873 163.5 28.553123Q162.65625 29.334373 162.25 31.240623L161.45312 35.1L160.03125 35.1ZM168.95312 35.85L170.39062 35.990623Q170.375 36.475 170.5 36.709373Q170.64062 36.959373 170.92188 37.084373Q171.3125 37.25625 171.92188 37.25625Q173.20312 37.25625 173.76562 36.6Q174.125 36.146873 174.4375 34.646873L174.57812 33.975Q173.48438 35.1 172.23438 35.1Q170.98438 35.1 170.125 34.178123Q169.28125 33.240623 169.28125 31.553123Q169.28125 30.146873 169.95312 28.974998Q170.625 27.803123 171.54688 27.209373Q172.46875 26.615623 173.4375 26.615623Q175.07812 26.615623 175.95312 28.162498L176.23438 26.803123L177.53125 26.803123L175.85938 34.803123Q175.59375 36.13125 175.14062 36.865623Q174.70312 37.615623 173.90625 38.021873Q173.10938 38.428123 172.07812 38.428123Q171.07812 38.428123 170.34375 38.1625Q169.625 37.9125 169.26562 37.4125Q168.92188 36.9125 168.92188 36.271873Q168.92188 36.084373 168.95312 35.85ZM170.71875 31.428123Q170.71875 32.271873 170.89062 32.709373Q171.125 33.303123 171.54688 33.63125Q171.98438 33.94375 172.51562 33.94375Q173.21875 33.94375 173.90625 33.459373Q174.59375 32.959373 175.01562 31.943748Q175.4375 30.912498 175.4375 29.990623Q175.4375 28.959373 174.875 28.365623Q174.3125 27.756248 173.46875 27.756248Q172.95312 27.756248 172.46875 28.037498Q171.98438 28.303123 171.5625 28.881248Q171.15625 29.443748 170.9375 30.240623Q170.71875 31.021873 170.71875 31.428123ZM182.42188 35.1L184.8125 23.646873L186.34375 23.646873L183.95312 35.1L182.42188 35.1ZM186.03125 35.1L187.76562 26.803123L189.17188 26.803123L188.89062 28.162498Q189.67188 27.287498 190.29688 26.959373Q190.92188 26.615623 191.64062 26.615623Q192.42188 26.615623 192.9375 27.021873Q193.45312 27.428123 193.625 28.162498Q194.25 27.381248 194.95312 27.006248Q195.65625 26.615623 196.42188 26.615623Q197.46875 26.615623 197.98438 27.115623Q198.5 27.599998 198.5 28.490623Q198.5 28.865623 198.32812 29.756248L197.20312 35.1L195.79688 35.1L196.9375 29.615623Q197.07812 28.943748 197.07812 28.646873Q197.07812 28.240623 196.8125 28.006248Q196.5625 27.771873 196.09375 27.771873Q195.46875 27.771873 194.8125 28.162498Q194.15625 28.537498 193.78125 29.162498Q193.42188 29.787498 193.15625 31.068748L192.3125 35.1L190.89062 35.1L192.0625 29.490623Q192.1875 28.928123 192.1875 28.678123Q192.1875 28.271873 191.9375 28.021873Q191.6875 27.771873 191.28125 27.771873Q190.67188 27.771873 190.01562 28.162498Q189.35938 28.537498 188.9375 29.224998Q188.53125 29.912498 188.26562 31.178123L187.4375 35.1L186.03125 35.1ZM205.625 34.06875Q204.89062 34.69375 204.20312 34.990623Q203.53125 35.2875 202.76562 35.2875Q201.60938 35.2875 200.90625 34.615623Q200.20312 33.928123 200.20312 32.88125Q200.20312 32.178123 200.51562 31.646873Q200.84375 31.115623 201.35938 30.787498Q201.89062 30.459373 202.64062 30.318748Q203.125 30.224998 204.45312 30.178123Q205.78125 30.115623 206.35938 29.896873Q206.53125 29.318748 206.53125 28.928123Q206.53125 28.443748 206.17188 28.162498Q205.67188 27.771873 204.73438 27.771873Q203.84375 27.771873 203.26562 28.162498Q202.70312 28.553123 202.45312 29.287498L201.01562 29.162498Q201.45312 27.928123 202.40625 27.271873Q203.35938 26.615623 204.79688 26.615623Q206.34375 26.615623 207.23438 27.349998Q207.92188 27.896873 207.92188 28.771873Q207.92188 29.428123 207.73438 30.303123L207.26562 32.365623Q207.04688 33.35 207.04688 33.975Q207.04688 34.365623 207.21875 35.1L205.79688 35.1Q205.67188 34.69375 205.625 34.06875ZM206.15625 30.896873Q205.85938 31.006248 205.51562 31.068748Q205.17188 31.131248 204.375 31.209373Q203.14062 31.318748 202.625 31.490623Q202.125 31.646873 201.85938 32.021873Q201.60938 32.38125 201.60938 32.834373Q201.60938 33.428123 202.01562 33.81875Q202.4375 34.19375 203.1875 34.19375Q203.89062 34.19375 204.53125 33.81875Q205.1875 33.44375 205.5625 32.7875Q205.9375 32.115623 206.15625 30.896873ZM208.95312 35.85L210.39062 35.990623Q210.375 36.475 210.5 36.709373Q210.64062 36.959373 210.92188 37.084373Q211.3125 37.25625 211.92188 37.25625Q213.20312 37.25625 213.76562 36.6Q214.125 36.146873 214.4375 34.646873L214.57812 33.975Q213.48438 35.1 212.23438 35.1Q210.98438 35.1 210.125 34.178123Q209.28125 33.240623 209.28125 31.553123Q209.28125 30.146873 209.95312 28.974998Q210.625 27.803123 211.54688 27.209373Q212.46875 26.615623 213.4375 26.615623Q215.07812 26.615623 215.95312 28.162498L216.23438 26.803123L217.53125 26.803123L215.85938 34.803123Q215.59375 36.13125 215.14062 36.865623Q214.70312 37.615623 213.90625 38.021873Q213.10938 38.428123 212.07812 38.428123Q211.07812 38.428123 210.34375 38.1625Q209.625 37.9125 209.26562 37.4125Q208.92188 36.9125 208.92188 36.271873Q208.92188 36.084373 208.95312 35.85ZM210.71875 31.428123Q210.71875 32.271873 210.89062 32.709373Q211.125 33.303123 211.54688 33.63125Q211.98438 33.94375 212.51562 33.94375Q213.21875 33.94375 213.90625 33.459373Q214.59375 32.959373 215.01562 31.943748Q215.4375 30.912498 215.4375 29.990623Q215.4375 28.959373 214.875 28.365623Q214.3125 27.756248 213.46875 27.756248Q212.95312 27.756248 212.46875 28.037498Q211.98438 28.303123 211.5625 28.881248Q211.15625 29.443748 210.9375 30.240623Q210.71875 31.021873 210.71875 31.428123ZM224.125 32.271873L225.5 32.4125Q225.20312 33.44375 224.14062 34.365623Q223.07812 35.2875 221.59375 35.2875Q220.67188 35.2875 219.90625 34.865623Q219.14062 34.428123 218.73438 33.615623Q218.32812 32.803123 218.32812 31.771873Q218.32812 30.412498 218.95312 29.131248Q219.59375 27.849998 220.59375 27.240623Q221.59375 26.615623 222.75 26.615623Q224.23438 26.615623 225.125 27.537498Q226.01562 28.459373 226.01562 30.053123Q226.01562 30.662498 225.90625 31.303123L219.79688 31.303123Q219.76562 31.537498 219.76562 31.740623Q219.76562 32.896873 220.29688 33.521873Q220.82812 34.13125 221.60938 34.13125Q222.32812 34.13125 223.03125 33.6625Q223.73438 33.178123 224.125 32.271873ZM220.01562 30.224998L224.67188 30.224998Q224.6875 30.006248 224.6875 29.912498Q224.6875 28.849998 224.15625 28.287498Q223.625 27.709373 222.78125 27.709373Q221.875 27.709373 221.125 28.334373Q220.39062 28.959373 220.01562 30.224998ZM227.17188 32.25625L228.57812 32.178123Q228.57812 32.7875 228.76562 33.225Q228.95312 33.646873 229.45312 33.928123Q229.96875 34.19375 230.64062 34.19375Q231.57812 34.19375 232.04688 33.81875Q232.51562 33.44375 232.51562 32.928123Q232.51562 32.56875 232.23438 32.240623Q231.9375 31.912498 230.8125 31.428123Q229.70312 30.943748 229.39062 30.756248Q228.85938 30.428123 228.59375 30.006248Q228.32812 29.568748 228.32812 29.006248Q228.32812 28.021873 229.10938 27.318748Q229.89062 26.615623 231.29688 26.615623Q232.85938 26.615623 233.67188 27.334373Q234.5 28.053123 234.53125 29.240623L233.14062 29.334373Q233.10938 28.584373 232.60938 28.146873Q232.10938 27.709373 231.20312 27.709373Q230.46875 27.709373 230.0625 28.053123Q229.65625 28.381248 229.65625 28.771873Q229.65625 29.162498 230.0 29.459373Q230.23438 29.662498 231.21875 30.084373Q232.84375 30.787498 233.26562 31.193748Q233.9375 31.834373 233.9375 32.771873Q233.9375 33.38125 233.54688 33.975Q233.17188 34.56875 232.39062 34.928123Q231.625 35.2875 230.5625 35.2875Q229.125 35.2875 228.125 34.56875Q227.10938 33.865623 227.17188 32.25625Z" fill-rule="nonzero"/><path fill="#ea4335" d="M250.5 24.6C250.5 24.047716 250.94771 23.6 251.5 23.6L261.5 23.6C262.05228 23.6 262.5 24.047716 262.5 24.6L262.5 34.6C262.5 35.152287 262.05228 35.6 261.5 35.6L251.5 35.6C250.94771 35.6 250.5 35.152287 250.5 34.6Z" fill-rule="nonzero"/><path fill="#1a1a1a" d="M274.14062 35.1L276.25 24.943748L272.5 24.943748L272.76562 23.646873L281.78125 23.646873L281.51562 24.943748L277.78125 24.943748L275.67188 35.1L274.14062 35.1ZM287.125 32.271873L288.5 32.4125Q288.20312 33.44375 287.14062 34.365623Q286.07812 35.2875 284.59375 35.2875Q283.67188 35.2875 282.90625 34.865623Q282.14062 34.428123 281.73438 33.615623Q281.32812 32.803123 281.32812 31.771873Q281.32812 30.412498 281.95312 29.131248Q282.59375 27.849998 283.59375 27.240623Q284.59375 26.615623 285.75 26.615623Q287.23438 26.615623 288.125 27.537498Q289.01562 28.459373 289.01562 30.053123Q289.01562 30.662498 288.90625 31.303123L282.79688 31.303123Q282.76562 31.537498 282.76562 31.740623Q282.76562 32.896873 283.29688 33.521873Q283.82812 34.13125 284.60938 34.13125Q285.32812 34.13125 286.03125 33.6625Q286.73438 33.178123 287.125 32.271873ZM283.01562 30.224998L287.67188 30.224998Q287.6875 30.006248 287.6875 29.912498Q287.6875 28.849998 287.15625 28.287498Q286.625 27.709373 285.78125 27.709373Q284.875 27.709373 284.125 28.334373Q283.39062 28.959373 283.01562 30.224998ZM289.46875 35.1L293.09375 30.881248L291.01562 26.803123L292.57812 26.803123L293.28125 28.271873Q293.67188 29.099998 293.98438 29.865623L296.375 26.803123L298.10938 26.803123L294.625 30.990623L296.71875 35.1L295.15625 35.1L294.32812 33.4125Q294.0625 32.865623 293.71875 32.06875L291.25 35.1L289.46875 35.1ZM301.34375 33.94375L301.10938 35.115623Q300.59375 35.240623 300.125 35.240623Q299.28125 35.240623 298.78125 34.81875Q298.40625 34.50625 298.40625 33.975Q298.40625 33.69375 298.60938 32.709373L299.60938 27.896873L298.5 27.896873L298.71875 26.803123L299.84375 26.803123L300.26562 24.756248L301.89062 23.787498L301.25 26.803123L302.64062 26.803123L302.40625 27.896873L301.03125 27.896873L300.0625 32.475Q299.89062 33.35 299.89062 33.521873Q299.89062 33.771873 300.03125 33.9125Q300.17188 34.0375 300.5 34.0375Q300.96875 34.0375 301.34375 33.94375ZM302.25 31.662498L302.54688 30.240623L306.85938 30.240623L306.5625 31.662498L302.25 31.662498ZM310.14062 35.1L312.25 24.943748L308.5 24.943748L308.76562 23.646873L317.78125 23.646873L317.51562 24.943748L313.78125 24.943748L311.67188 35.1L310.14062 35.1ZM317.28125 31.943748Q317.28125 29.521873 318.71875 27.928123Q319.89062 26.615623 321.8125 26.615623Q323.3125 26.615623 324.21875 27.553123Q325.14062 28.490623 325.14062 30.084373Q325.14062 31.506248 324.5625 32.740623Q323.98438 33.975 322.92188 34.63125Q321.85938 35.2875 320.67188 35.2875Q319.70312 35.2875 318.90625 34.88125Q318.125 34.459373 317.70312 33.709373Q317.28125 32.94375 317.28125 31.943748ZM318.70312 31.803123Q318.70312 32.975 319.26562 33.584373Q319.82812 34.19375 320.6875 34.19375Q321.14062 34.19375 321.57812 34.00625Q322.03125 33.81875 322.40625 33.44375Q322.79688 33.06875 323.0625 32.6Q323.34375 32.115623 323.5 31.553123Q323.75 30.787498 323.75 30.068748Q323.75 28.943748 323.17188 28.334373Q322.60938 27.709373 321.75 27.709373Q321.09375 27.709373 320.54688 28.021873Q320.0 28.334373 319.54688 28.943748Q319.10938 29.553123 318.90625 30.365623Q318.70312 31.178123 318.70312 31.803123ZM326.25 31.662498L326.54688 30.240623L330.85938 30.240623L330.5625 31.662498L326.25 31.662498ZM331.21875 35.1L333.60938 23.646873L337.0625 23.646873Q338.29688 23.646873 338.95312 23.818748Q339.89062 24.068748 340.54688 24.693748Q341.21875 25.303123 341.54688 26.240623Q341.89062 27.162498 341.89062 28.318748Q341.89062 29.709373 341.46875 30.849998Q341.0625 31.974998 340.375 32.85Q339.70312 33.709373 338.96875 34.19375Q338.23438 34.678123 337.21875 34.9125Q336.45312 35.1 335.34375 35.1L331.21875 35.1ZM333.01562 33.803123L334.82812 33.803123Q336.0625 33.803123 337.01562 33.56875Q337.60938 33.428123 338.03125 33.1625Q338.57812 32.803123 339.03125 32.225Q339.625 31.459373 339.98438 30.490623Q340.34375 29.506248 340.34375 28.256248Q340.34375 26.865623 339.85938 26.115623Q339.375 25.365623 338.625 25.131248Q338.0625 24.943748 336.89062 24.943748L334.875 24.943748L333.01562 33.803123ZM343.03125 35.1L344.76562 26.803123L346.01562 26.803123L345.67188 28.490623Q346.3125 27.537498 346.92188 27.084373Q347.53125 26.615623 348.17188 26.615623Q348.59375 26.615623 349.21875 26.912498L348.64062 28.224998Q348.26562 27.959373 347.82812 27.959373Q347.09375 27.959373 346.3125 28.787498Q345.53125 29.615623 345.07812 31.771873L344.375 35.1L343.03125 35.1ZM353.625 34.06875Q352.89062 34.69375 352.20312 34.990623Q351.53125 35.2875 350.76562 35.2875Q349.60938 35.2875 348.90625 34.615623Q348.20312 33.928123 348.20312 32.88125Q348.20312 32.178123 348.51562 31.646873Q348.84375 31.115623 349.35938 30.787498Q349.89062 30.459373 350.64062 30.318748Q351.125 30.224998 352.45312 30.178123Q353.78125 30.115623 354.35938 29.896873Q354.53125 29.318748 354.53125 28.928123Q354.53125 28.443748 354.17188 28.162498Q353.67188 27.771873 352.73438 27.771873Q351.84375 27.771873 351.26562 28.162498Q350.70312 28.553123 350.45312 29.287498L349.01562 29.162498Q349.45312 27.928123 350.40625 27.271873Q351.35938 26.615623 352.79688 26.615623Q354.34375 26.615623 355.23438 27.349998Q355.92188 27.896873 355.92188 28.771873Q355.92188 29.428123 355.73438 30.303123L355.26562 32.365623Q355.04688 33.35 355.04688 33.975Q355.04688 34.365623 355.21875 35.1L353.79688 35.1Q353.67188 34.69375 353.625 34.06875ZM354.15625 30.896873Q353.85938 31.006248 353.51562 31.068748Q353.17188 31.131248 352.375 31.209373Q351.14062 31.318748 350.625 31.490623Q350.125 31.646873 349.85938 32.021873Q349.60938 32.38125 349.60938 32.834373Q349.60938 33.428123 350.01562 33.81875Q350.4375 34.19375 351.1875 34.19375Q351.89062 34.19375 352.53125 33.81875Q353.1875 33.44375 353.5625 32.7875Q353.9375 32.115623 354.15625 30.896873ZM358.60938 35.1L357.75 26.803123L359.10938 26.803123L359.48438 30.521873L359.625 32.615623Q359.64062 32.85 359.67188 33.56875Q359.90625 32.771873 360.0625 32.35Q360.23438 31.912498 360.59375 31.131248L362.57812 26.803123L364.10938 26.803123L364.39062 30.943748Q364.45312 31.896873 364.46875 33.475Q364.85938 32.428123 365.73438 30.568748L367.51562 26.803123L368.9375 26.803123L364.875 35.1L363.40625 35.1L363.09375 30.224998Q363.0625 29.771873 363.04688 28.459373Q362.73438 29.303123 362.29688 30.271873L360.09375 35.1L358.60938 35.1ZM368.04688 25.240623L368.375 23.646873L369.78125 23.646873L369.45312 25.240623L368.04688 25.240623ZM365.98438 35.1L367.71875 26.803123L369.125 26.803123L367.39062 35.1L365.98438 35.1ZM370.03125 35.1L371.76562 26.803123L373.04688 26.803123L372.75 28.240623Q373.57812 27.396873 374.29688 27.006248Q375.03125 26.615623 375.79688 26.615623Q376.79688 26.615623 377.375 27.162498Q377.95312 27.709373 377.95312 28.615623Q377.95312 29.084373 377.75 30.068748L376.6875 35.1L375.28125 35.1L376.375 29.834373Q376.54688 29.068748 376.54688 28.709373Q376.54688 28.287498 376.25 28.037498Q375.96875 27.771873 375.4375 27.771873Q374.34375 27.771873 373.5 28.553123Q372.65625 29.334373 372.25 31.240623L371.45312 35.1L370.03125 35.1ZM378.95312 35.85L380.39062 35.990623Q380.375 36.475 380.5 36.709373Q380.64062 36.959373 380.92188 37.084373Q381.3125 37.25625 381.92188 37.25625Q383.20312 37.25625 383.76562 36.6Q384.125 36.146873 384.4375 34.646873L384.57812 33.975Q383.48438 35.1 382.23438 35.1Q380.98438 35.1 380.125 34.178123Q379.28125 33.240623 379.28125 31.553123Q379.28125 30.146873 379.95312 28.974998Q380.625 27.803123 381.54688 27.209373Q382.46875 26.615623 383.4375 26.615623Q385.07812 26.615623 385.95312 28.162498L386.23438 26.803123L387.53125 26.803123L385.85938 34.803123Q385.59375 36.13125 385.14062 36.865623Q384.70312 37.615623 383.90625 38.021873Q383.10938 38.428123 382.07812 38.428123Q381.07812 38.428123 380.34375 38.1625Q379.625 37.9125 379.26562 37.4125Q378.92188 36.9125 378.92188 36.271873Q378.92188 36.084373 378.95312 35.85ZM380.71875 31.428123Q380.71875 32.271873 380.89062 32.709373Q381.125 33.303123 381.54688 33.63125Q381.98438 33.94375 382.51562 33.94375Q383.21875 33.94375 383.90625 33.459373Q384.59375 32.959373 385.01562 31.943748Q385.4375 30.912498 385.4375 29.990623Q385.4375 28.959373 384.875 28.365623Q384.3125 27.756248 383.46875 27.756248Q382.95312 27.756248 382.46875 28.037498Q381.98438 28.303123 381.5625 28.881248Q381.15625 29.443748 380.9375 30.240623Q380.71875 31.021873 380.71875 31.428123ZM392.21875 35.1L394.60938 23.646873L398.0625 23.646873Q399.29688 23.646873 399.95312 23.818748Q400.89062 24.068748 401.54688 24.693748Q402.21875 25.303123 402.54688 26.240623Q402.89062 27.162498 402.89062 28.318748Q402.89062 29.709373 402.46875 30.849998Q402.0625 31.974998 401.375 32.85Q400.70312 33.709373 399.96875 34.19375Q399.23438 34.678123 398.21875 34.9125Q397.45312 35.1 396.34375 35.1L392.21875 35.1ZM394.01562 33.803123L395.82812 33.803123Q397.0625 33.803123 398.01562 33.56875Q398.60938 33.428123 399.03125 33.1625Q399.57812 32.803123 400.03125 32.225Q400.625 31.459373 400.98438 30.490623Q401.34375 29.506248 401.34375 28.256248Q401.34375 26.865623 400.85938 26.115623Q400.375 25.365623 399.625 25.131248Q399.0625 24.943748 397.89062 24.943748L395.875 24.943748L394.01562 33.803123ZM404.03125 35.1L405.76562 26.803123L407.01562 26.803123L406.67188 28.490623Q407.3125 27.537498 407.92188 27.084373Q408.53125 26.615623 409.17188 26.615623Q409.59375 26.615623 410.21875 26.912498L409.64062 28.224998Q409.26562 27.959373 408.82812 27.959373Q408.09375 27.959373 407.3125 28.787498Q406.53125 29.615623 406.07812 31.771873L405.375 35.1L404.03125 35.1ZM414.625 34.06875Q413.89062 34.69375 413.20312 34.990623Q412.53125 35.2875 411.76562 35.2875Q410.60938 35.2875 409.90625 34.615623Q409.20312 33.928123 409.20312 32.88125Q409.20312 32.178123 409.51562 31.646873Q409.84375 31.115623 410.35938 30.787498Q410.89062 30.459373 411.64062 30.318748Q412.125 30.224998 413.45312 30.178123Q414.78125 30.115623 415.35938 29.896873Q415.53125 29.318748 415.53125 28.928123Q415.53125 28.443748 415.17188 28.162498Q414.67188 27.771873 413.73438 27.771873Q412.84375 27.771873 412.26562 28.162498Q411.70312 28.553123 411.45312 29.287498L410.01562 29.162498Q410.45312 27.928123 411.40625 27.271873Q412.35938 26.615623 413.79688 26.615623Q415.34375 26.615623 416.23438 27.349998Q416.92188 27.896873 416.92188 28.771873Q416.92188 29.428123 416.73438 30.303123L416.26562 32.365623Q416.04688 33.35 416.04688 33.975Q416.04688 34.365623 416.21875 35.1L414.79688 35.1Q414.67188 34.69375 414.625 34.06875ZM415.15625 30.896873Q414.85938 31.006248 414.51562 31.068748Q414.17188 31.131248 413.375 31.209373Q412.14062 31.318748 411.625 31.490623Q411.125 31.646873 410.85938 32.021873Q410.60938 32.38125 410.60938 32.834373Q410.60938 33.428123 411.01562 33.81875Q411.4375 34.19375 412.1875 34.19375Q412.89062 34.19375 413.53125 33.81875Q414.1875 33.44375 414.5625 32.7875Q414.9375 32.115623 415.15625 30.896873ZM419.60938 35.1L418.75 26.803123L420.10938 26.803123L420.48438 30.521873L420.625 32.615623Q420.64062 32.85 420.67188 33.56875Q420.90625 32.771873 421.0625 32.35Q421.23438 31.912498 421.59375 31.131248L423.57812 26.803123L425.10938 26.803123L425.39062 30.943748Q425.45312 31.896873 425.46875 33.475Q425.85938 32.428123 426.73438 30.568748L428.51562 26.803123L429.9375 26.803123L425.875 35.1L424.40625 35.1L424.09375 30.224998Q424.0625 29.771873 424.04688 28.459373Q423.73438 29.303123 423.29688 30.271873L421.09375 35.1L419.60938 35.1ZM429.04688 25.240623L429.375 23.646873L430.78125 23.646873L430.45312 25.240623L429.04688 25.240623ZM426.98438 35.1L428.71875 26.803123L430.125 26.803123L428.39062 35.1L426.98438 35.1ZM431.03125 35.1L432.76562 26.803123L434.04688 26.803123L433.75 28.240623Q434.57812 27.396873 435.29688 27.006248Q436.03125 26.615623 436.79688 26.615623Q437.79688 26.615623 438.375 27.162498Q438.95312 27.709373 438.95312 28.615623Q438.95312 29.084373 438.75 30.068748L437.6875 35.1L436.28125 35.1L437.375 29.834373Q437.54688 29.068748 437.54688 28.709373Q437.54688 28.287498 437.25 28.037498Q436.96875 27.771873 436.4375 27.771873Q435.34375 27.771873 434.5 28.553123Q433.65625 29.334373 433.25 31.240623L432.45312 35.1L431.03125 35.1ZM439.95312 35.85L441.39062 35.990623Q441.375 36.475 441.5 36.709373Q441.64062 36.959373 441.92188 37.084373Q442.3125 37.25625 442.92188 37.25625Q444.20312 37.25625 444.76562 36.6Q445.125 36.146873 445.4375 34.646873L445.57812 33.975Q444.48438 35.1 443.23438 35.1Q441.98438 35.1 441.125 34.178123Q440.28125 33.240623 440.28125 31.553123Q440.28125 30.146873 440.95312 28.974998Q441.625 27.803123 442.54688 27.209373Q443.46875 26.615623 444.4375 26.615623Q446.07812 26.615623 446.95312 28.162498L447.23438 26.803123L448.53125 26.803123L446.85938 34.803123Q446.59375 36.13125 446.14062 36.865623Q445.70312 37.615623 444.90625 38.021873Q444.10938 38.428123 443.07812 38.428123Q442.07812 38.428123 441.34375 38.1625Q440.625 37.9125 440.26562 37.4125Q439.92188 36.9125 439.92188 36.271873Q439.92188 36.084373 439.95312 35.85ZM441.71875 31.428123Q441.71875 32.271873 441.89062 32.709373Q442.125 33.303123 442.54688 33.63125Q442.98438 33.94375 443.51562 33.94375Q444.21875 33.94375 444.90625 33.459373Q445.59375 32.959373 446.01562 31.943748Q446.4375 30.912498 446.4375 29.990623Q446.4375 28.959373 445.875 28.365623Q445.3125 27.756248 444.46875 27.756248Q443.95312 27.756248 443.46875 28.037498Q442.98438 28.303123 442.5625 28.881248Q442.15625 29.443748 441.9375 30.240623Q441.71875 31.021873 441.71875 31.428123ZM449.17188 32.25625L450.57812 32.178123Q450.57812 32.7875 450.76562 33.225Q450.95312 33.646873 451.45312 33.928123Q451.96875 34.19375 452.64062 34.19375Q453.57812 34.19375 454.04688 33.81875Q454.51562 33.44375 454.51562 32.928123Q454.51562 32.56875 454.23438 32.240623Q453.9375 31.912498 452.8125 31.428123Q451.70312 30.943748 451.39062 30.756248Q450.85938 30.428123 450.59375 30.006248Q450.32812 29.568748 450.32812 29.006248Q450.32812 28.021873 451.10938 27.318748Q451.89062 26.615623 453.29688 26.615623Q454.85938 26.615623 455.67188 27.334373Q456.5 28.053123 456.53125 29.240623L455.14062 29.334373Q455.10938 28.584373 454.60938 28.146873Q454.10938 27.709373 453.20312 27.709373Q452.46875 27.709373 452.0625 28.053123Q451.65625 28.381248 451.65625 28.771873Q451.65625 29.162498 452.0 29.459373Q452.23438 29.662498 453.21875 30.084373Q454.84375 30.787498 455.26562 31.193748Q455.9375 31.834373 455.9375 32.771873Q455.9375 33.38125 455.54688 33.975Q455.17188 34.56875 454.39062 34.928123Q453.625 35.2875 452.5625 35.2875Q451.125 35.2875 450.125 34.56875Q449.10938 33.865623 449.17188 32.25625Z" fill-rule="nonzero"/><path fill="#fbbc04" d="M472.5 24.6C472.5 24.047716 472.94772 23.6 473.5 23.6L483.5 23.6C484.05228 23.6 484.5 24.047716 484.5 24.6L484.5 34.6C484.5 35.152287 484.05228 35.6 483.5 35.6L473.5 35.6C472.94772 35.6 472.5 35.152287 472.5 34.6Z" fill-rule="nonzero"/><path fill="#1a1a1a" d="M493.42188 35.1L495.8125 23.646873L497.34375 23.646873L494.95312 35.1L493.42188 35.1ZM497.03125 35.1L498.76562 26.803123L500.04688 26.803123L499.75 28.240623Q500.57812 27.396873 501.29688 27.006248Q502.03125 26.615623 502.79688 26.615623Q503.79688 26.615623 504.375 27.162498Q504.95312 27.709373 504.95312 28.615623Q504.95312 29.084373 504.75 30.068748L503.6875 35.1L502.28125 35.1L503.375 29.834373Q503.54688 29.068748 503.54688 28.709373Q503.54688 28.287498 503.25 28.037498Q502.96875 27.771873 502.4375 27.771873Q501.34375 27.771873 500.5 28.553123Q499.65625 29.334373 499.25 31.240623L498.45312 35.1L497.03125 35.1ZM505.32812 38.2875L507.73438 26.803123L509.04688 26.803123L508.79688 27.959373Q509.53125 27.193748 510.09375 26.912498Q510.67188 26.615623 511.3125 26.615623Q512.5 26.615623 513.28125 27.474998Q514.0625 28.334373 514.0625 29.943748Q514.0625 31.240623 513.625 32.31875Q513.2031 33.38125 512.5781 34.0375Q511.95312 34.678123 511.3125 34.990623Q510.67188 35.2875 510.0 35.2875Q508.51562 35.2875 507.6875 33.771873L506.75 38.2875L505.32812 38.2875ZM508.14062 31.709373Q508.14062 32.63125 508.26562 32.990623Q508.46875 33.50625 508.90625 33.81875Q509.35938 34.13125 509.9375 34.13125Q511.15625 34.13125 511.90625 32.75625Q512.65625 31.381248 512.65625 29.959373Q512.65625 28.896873 512.15625 28.334373Q511.65625 27.756248 510.90625 27.756248Q510.35938 27.756248 509.89062 28.037498Q509.4375 28.318748 509.04688 28.896873Q508.65625 29.459373 508.39062 30.287498Q508.14062 31.099998 508.14062 31.709373ZM520.625 34.06875Q519.8906 34.69375 519.2031 34.990623Q518.53125 35.2875 517.7656 35.2875Q516.6094 35.2875 515.90625 34.615623Q515.2031 33.928123 515.2031 32.88125Q515.2031 32.178123 515.5156 31.646873Q515.84375 31.115623 516.3594 30.787498Q516.8906 30.459373 517.6406 30.318748Q518.125 30.224998 519.4531 30.178123Q520.78125 30.115623 521.3594 29.896873Q521.53125 29.318748 521.53125 28.928123Q521.53125 28.443748 521.1719 28.162498Q520.6719 27.771873 519.7344 27.771873Q518.84375 27.771873 518.2656 28.162498Q517.7031 28.553123 517.4531 29.287498L516.0156 29.162498Q516.4531 27.928123 517.40625 27.271873Q518.3594 26.615623 519.7969 26.615623Q521.34375 26.615623 522.2344 27.349998Q522.9219 27.896873 522.9219 28.771873Q522.9219 29.428123 522.7344 30.303123L522.2656 32.365623Q522.0469 33.35 522.0469 33.975Q522.0469 34.365623 522.21875 35.1L520.7969 35.1Q520.6719 34.69375 520.625 34.06875ZM521.15625 30.896873Q520.8594 31.006248 520.5156 31.068748Q520.1719 31.131248 519.375 31.209373Q518.1406 31.318748 517.625 31.490623Q517.125 31.646873 516.8594 32.021873Q516.6094 32.38125 516.6094 32.834373Q516.6094 33.428123 517.0156 33.81875Q517.4375 34.19375 518.1875 34.19375Q518.8906 34.19375 519.53125 33.81875Q520.1875 33.44375 520.5625 32.7875Q520.9375 32.115623 521.15625 30.896873ZM526.0469 25.240623L526.375 23.646873L527.78125 23.646873L527.4531 25.240623L526.0469 25.240623ZM523.9844 35.1L525.71875 26.803123L527.125 26.803123L525.3906 35.1L523.9844 35.1ZM528.03125 35.1L529.7656 26.803123L531.0469 26.803123L530.75 28.240623Q531.5781 27.396873 532.2969 27.006248Q533.03125 26.615623 533.7969 26.615623Q534.7969 26.615623 535.375 27.162498Q535.9531 27.709373 535.9531 28.615623Q535.9531 29.084373 535.75 30.068748L534.6875 35.1L533.28125 35.1L534.375 29.834373Q534.5469 29.068748 534.5469 28.709373Q534.5469 28.287498 534.25 28.037498Q533.96875 27.771873 533.4375 27.771873Q532.34375 27.771873 531.5 28.553123Q530.65625 29.334373 530.25 31.240623L529.4531 35.1L528.03125 35.1ZM540.34375 33.94375L540.1094 35.115623Q539.59375 35.240623 539.125 35.240623Q538.28125 35.240623 537.78125 34.81875Q537.40625 34.50625 537.40625 33.975Q537.40625 33.69375 537.6094 32.709373L538.6094 27.896873L537.5 27.896873L537.71875 26.803123L538.84375 26.803123L539.2656 24.756248L540.8906 23.787498L540.25 26.803123L541.6406 26.803123L541.40625 27.896873L540.03125 27.896873L539.0625 32.475Q538.8906 33.35 538.8906 33.521873Q538.8906 33.771873 539.03125 33.9125Q539.1719 34.0375 539.5 34.0375Q539.96875 34.0375 540.34375 33.94375ZM543.0469 25.240623L543.375 23.646873L544.78125 23.646873L544.4531 25.240623L543.0469 25.240623ZM540.9844 35.1L542.71875 26.803123L544.125 26.803123L542.3906 35.1L540.9844 35.1ZM545.03125 35.1L546.7656 26.803123L548.0469 26.803123L547.75 28.240623Q548.5781 27.396873 549.2969 27.006248Q550.03125 26.615623 550.7969 26.615623Q551.7969 26.615623 552.375 27.162498Q552.9531 27.709373 552.9531 28.615623Q552.9531 29.084373 552.75 30.068748L551.6875 35.1L550.28125 35.1L551.375 29.834373Q551.5469 29.068748 551.5469 28.709373Q551.5469 28.287498 551.25 28.037498Q550.96875 27.771873 550.4375 27.771873Q549.34375 27.771873 548.5 28.553123Q547.65625 29.334373 547.25 31.240623L546.4531 35.1L545.03125 35.1ZM553.9531 35.85L555.3906 35.990623Q555.375 36.475 555.5 36.709373Q555.6406 36.959373 555.9219 37.084373Q556.3125 37.25625 556.9219 37.25625Q558.2031 37.25625 558.7656 36.6Q559.125 36.146873 559.4375 34.646873L559.5781 33.975Q558.4844 35.1 557.2344 35.1Q555.9844 35.1 555.125 34.178123Q554.28125 33.240623 554.28125 31.553123Q554.28125 30.146873 554.9531 28.974998Q555.625 27.803123 556.5469 27.209373Q557.46875 26.615623 558.4375 26.615623Q560.0781 26.615623 560.9531 28.162498L561.2344 26.803123L562.53125 26.803123L560.8594 34.803123Q560.59375 36.13125 560.1406 36.865623Q559.7031 37.615623 558.90625 38.021873Q558.1094 38.428123 557.0781 38.428123Q556.0781 38.428123 555.34375 38.1625Q554.625 37.9125 554.2656 37.4125Q553.9219 36.9125 553.9219 36.271873Q553.9219 36.084373 553.9531 35.85ZM555.71875 31.428123Q555.71875 32.271873 555.8906 32.709373Q556.125 33.303123 556.5469 33.63125Q556.9844 33.94375 557.5156 33.94375Q558.21875 33.94375 558.90625 33.459373Q559.59375 32.959373 560.0156 31.943748Q560.4375 30.912498 560.4375 29.990623Q560.4375 28.959373 559.875 28.365623Q559.3125 27.756248 558.46875 27.756248Q557.9531 27.756248 557.46875 28.037498Q556.9844 28.303123 556.5625 28.881248Q556.15625 29.443748 555.9375 30.240623Q555.71875 31.021873 555.71875 31.428123ZM567.4219 35.1L569.8125 23.646873L571.34375 23.646873L568.9531 35.1L567.4219 35.1ZM571.03125 35.1L572.7656 26.803123L574.1719 26.803123L573.8906 28.162498Q574.6719 27.287498 575.2969 26.959373Q575.9219 26.615623 576.6406 26.615623Q577.4219 26.615623 577.9375 27.021873Q578.4531 27.428123 578.625 28.162498Q579.25 27.381248 579.9531 27.006248Q580.65625 26.615623 581.4219 26.615623Q582.46875 26.615623 582.9844 27.115623Q583.5 27.599998 583.5 28.490623Q583.5 28.865623 583.3281 29.756248L582.2031 35.1L580.7969 35.1L581.9375 29.615623Q582.0781 28.943748 582.0781 28.646873Q582.0781 28.240623 581.8125 28.006248Q581.5625 27.771873 581.09375 27.771873Q580.46875 27.771873 579.8125 28.162498Q579.15625 28.537498 578.78125 29.162498Q578.4219 29.787498 578.15625 31.068748L577.3125 35.1L575.8906 35.1L577.0625 29.490623Q577.1875 28.928123 577.1875 28.678123Q577.1875 28.271873 576.9375 28.021873Q576.6875 27.771873 576.28125 27.771873Q575.6719 27.771873 575.0156 28.162498Q574.3594 28.537498 573.9375 29.224998Q573.53125 29.912498 573.2656 31.178123L572.4375 35.1L571.03125 35.1ZM590.625 34.06875Q589.8906 34.69375 589.2031 34.990623Q588.53125 35.2875 587.7656 35.2875Q586.6094 35.2875 585.90625 34.615623Q585.2031 33.928123 585.2031 32.88125Q585.2031 32.178123 585.5156 31.646873Q585.84375 31.115623 586.3594 30.787498Q586.8906 30.459373 587.6406 30.318748Q588.125 30.224998 589.4531 30.178123Q590.78125 30.115623 591.3594 29.896873Q591.53125 29.318748 591.53125 28.928123Q591.53125 28.443748 591.1719 28.162498Q590.6719 27.771873 589.7344 27.771873Q588.84375 27.771873 588.2656 28.162498Q587.7031 28.553123 587.4531 29.287498L586.0156 29.162498Q586.4531 27.928123 587.40625 27.271873Q588.3594 26.615623 589.7969 26.615623Q591.34375 26.615623 592.2344 27.349998Q592.9219 27.896873 592.9219 28.771873Q592.9219 29.428123 592.7344 30.303123L592.2656 32.365623Q592.0469 33.35 592.0469 33.975Q592.0469 34.365623 592.21875 35.1L590.7969 35.1Q590.6719 34.69375 590.625 34.06875ZM591.15625 30.896873Q590.8594 31.006248 590.5156 31.068748Q590.1719 31.131248 589.375 31.209373Q588.1406 31.318748 587.625 31.490623Q587.125 31.646873 586.8594 32.021873Q586.6094 32.38125 586.6094 32.834373Q586.6094 33.428123 587.0156 33.81875Q587.4375 34.19375 588.1875 34.19375Q588.8906 34.19375 589.53125 33.81875Q590.1875 33.44375 590.5625 32.7875Q590.9375 32.115623 591.15625 30.896873ZM593.9531 35.85L595.3906 35.990623Q595.375 36.475 595.5 36.709373Q595.6406 36.959373 595.9219 37.084373Q596.3125 37.25625 596.9219 37.25625Q598.2031 37.25625 598.7656 36.6Q599.125 36.146873 599.4375 34.646873L599.5781 33.975Q598.4844 35.1 597.2344 35.1Q595.9844 35.1 595.125 34.178123Q594.28125 33.240623 594.28125 31.553123Q594.28125 30.146873 594.9531 28.974998Q595.625 27.803123 596.5469 27.209373Q597.46875 26.615623 598.4375 26.615623Q600.0781 26.615623 600.9531 28.162498L601.2344 26.803123L602.53125 26.803123L600.8594 34.803123Q600.59375 36.13125 600.1406 36.865623Q599.7031 37.615623 598.90625 38.021873Q598.1094 38.428123 597.0781 38.428123Q596.0781 38.428123 595.34375 38.1625Q594.625 37.9125 594.2656 37.4125Q593.9219 36.9125 593.9219 36.271873Q593.9219 36.084373 593.9531 35.85ZM595.71875 31.428123Q595.71875 32.271873 595.8906 32.709373Q596.125 33.303123 596.5469 33.63125Q596.9844 33.94375 597.5156 33.94375Q598.21875 33.94375 598.90625 33.459373Q599.59375 32.959373 600.0156 31.943748Q600.4375 30.912498 600.4375 29.990623Q600.4375 28.959373 599.875 28.365623Q599.3125 27.756248 598.46875 27.756248Q597.9531 27.756248 597.46875 28.037498Q596.9844 28.303123 596.5625 28.881248Q596.15625 29.443748 595.9375 30.240623Q595.71875 31.021873 595.71875 31.428123ZM609.125 32.271873L610.5 32.4125Q610.2031 33.44375 609.1406 34.365623Q608.0781 35.2875 606.59375 35.2875Q605.6719 35.2875 604.90625 34.865623Q604.1406 34.428123 603.7344 33.615623Q603.3281 32.803123 603.3281 31.771873Q603.3281 30.412498 603.9531 29.131248Q604.59375 27.849998 605.59375 27.240623Q606.59375 26.615623 607.75 26.615623Q609.2344 26.615623 610.125 27.537498Q611.0156 28.459373 611.0156 30.053123Q611.0156 30.662498 610.90625 31.303123L604.7969 31.303123Q604.7656 31.537498 604.7656 31.740623Q604.7656 32.896873 605.2969 33.521873Q605.8281 34.13125 606.6094 34.13125Q607.3281 34.13125 608.03125 33.6625Q608.7344 33.178123 609.125 32.271873ZM605.0156 30.224998L609.6719 30.224998Q609.6875 30.006248 609.6875 29.912498Q609.6875 28.849998 609.15625 28.287498Q608.625 27.709373 607.78125 27.709373Q606.875 27.709373 606.125 28.334373Q605.3906 28.959373 605.0156 30.224998ZM612.1719 32.25625L613.5781 32.178123Q613.5781 32.7875 613.7656 33.225Q613.9531 33.646873 614.4531 33.928123Q614.96875 34.19375 615.6406 34.19375Q616.5781 34.19375 617.0469 33.81875Q617.5156 33.44375 617.5156 32.928123Q617.5156 32.56875 617.2344 32.240623Q616.9375 31.912498 615.8125 31.428123Q614.7031 30.943748 614.3906 30.756248Q613.8594 30.428123 613.59375 30.006248Q613.3281 29.568748 613.3281 29.006248Q613.3281 28.021873 614.1094 27.318748Q614.8906 26.615623 616.2969 26.615623Q617.8594 26.615623 618.6719 27.334373Q619.5 28.053123 619.53125 29.240623L618.1406 29.334373Q618.1094 28.584373 617.6094 28.146873Q617.1094 27.709373 616.2031 27.709373Q615.46875 27.709373 615.0625 28.053123Q614.65625 28.381248 614.65625 28.771873Q614.65625 29.162498 615.0 29.459373Q615.2344 29.662498 616.21875 30.084373Q617.84375 30.787498 618.2656 31.193748Q618.9375 31.834373 618.9375 32.771873Q618.9375 33.38125 618.5469 33.975Q618.1719 34.56875 617.3906 34.928123Q616.625 35.2875 615.5625 35.2875Q614.125 35.2875 613.125 34.56875Q612.1094 33.865623 612.1719 32.25625Z" fill-rule="nonzero"/><path fill="#34a853" d="M635.5 24.6C635.5 24.047716 635.9477 23.6 636.5 23.6L646.5 23.6C647.0523 23.6 647.5 24.047716 647.5 24.6L647.5 34.6C647.5 35.152287 647.0523 35.6 646.5 35.6L636.5 35.6C635.9477 35.6 635.5 35.152287 635.5 34.6Z" fill-rule="nonzero"/><path fill="#1a1a1a" d="M656.4219 35.1L658.8125 23.646873L660.34375 23.646873L657.9531 35.1L656.4219 35.1ZM660.03125 35.1L661.7656 26.803123L663.0469 26.803123L662.75 28.240623Q663.5781 27.396873 664.2969 27.006248Q665.03125 26.615623 665.7969 26.615623Q666.7969 26.615623 667.375 27.162498Q667.9531 27.709373 667.9531 28.615623Q667.9531 29.084373 667.75 30.068748L666.6875 35.1L665.28125 35.1L666.375 29.834373Q666.5469 29.068748 666.5469 28.709373Q666.5469 28.287498 666.25 28.037498Q665.96875 27.771873 665.4375 27.771873Q664.34375 27.771873 663.5 28.553123Q662.65625 29.334373 662.25 31.240623L661.4531 35.1L660.03125 35.1ZM668.3281 38.2875L670.7344 26.803123L672.0469 26.803123L671.7969 27.959373Q672.53125 27.193748 673.09375 26.912498Q673.6719 26.615623 674.3125 26.615623Q675.5 26.615623 676.28125 27.474998Q677.0625 28.334373 677.0625 29.943748Q677.0625 31.240623 676.625 32.31875Q676.2031 33.38125 675.5781 34.0375Q674.9531 34.678123 674.3125 34.990623Q673.6719 35.2875 673.0 35.2875Q671.5156 35.2875 670.6875 33.771873L669.75 38.2875L668.3281 38.2875ZM671.1406 31.709373Q671.1406 32.63125 671.2656 32.990623Q671.46875 33.50625 671.90625 33.81875Q672.3594 34.13125 672.9375 34.13125Q674.15625 34.13125 674.90625 32.75625Q675.65625 31.381248 675.65625 29.959373Q675.65625 28.896873 675.15625 28.334373Q674.65625 27.756248 673.90625 27.756248Q673.3594 27.756248 672.8906 28.037498Q672.4375 28.318748 672.0469 28.896873Q671.65625 29.459373 671.3906 30.287498Q671.1406 31.099998 671.1406 31.709373ZM683.625 34.06875Q682.8906 34.69375 682.2031 34.990623Q681.53125 35.2875 680.7656 35.2875Q679.6094 35.2875 678.90625 34.615623Q678.2031 33.928123 678.2031 32.88125Q678.2031 32.178123 678.5156 31.646873Q678.84375 31.115623 679.3594 30.787498Q679.8906 30.459373 680.6406 30.318748Q681.125 30.224998 682.4531 30.178123Q683.78125 30.115623 684.3594 29.896873Q684.53125 29.318748 684.53125 28.928123Q684.53125 28.443748 684.1719 28.162498Q683.6719 27.771873 682.7344 27.771873Q681.84375 27.771873 681.2656 28.162498Q680.7031 28.553123 680.4531 29.287498L679.0156 29.162498Q679.4531 27.928123 680.40625 27.271873Q681.3594 26.615623 682.7969 26.615623Q684.34375 26.615623 685.2344 27.349998Q685.9219 27.896873 685.9219 28.771873Q685.9219 29.428123 685.7344 30.303123L685.2656 32.365623Q685.0469 33.35 685.0469 33.975Q685.0469 34.365623 685.21875 35.1L683.7969 35.1Q683.6719 34.69375 683.625 34.06875ZM684.15625 30.896873Q683.8594 31.006248 683.5156 31.068748Q683.1719 31.131248 682.375 31.209373Q681.1406 31.318748 680.625 31.490623Q680.125 31.646873 679.8594 32.021873Q679.6094 32.38125 679.6094 32.834373Q679.6094 33.428123 680.0156 33.81875Q680.4375 34.19375 681.1875 34.19375Q681.8906 34.19375 682.53125 33.81875Q683.1875 33.44375 683.5625 32.7875Q683.9375 32.115623 684.15625 30.896873ZM689.0469 25.240623L689.375 23.646873L690.78125 23.646873L690.4531 25.240623L689.0469 25.240623ZM686.9844 35.1L688.71875 26.803123L690.125 26.803123L688.3906 35.1L686.9844 35.1ZM691.03125 35.1L692.7656 26.803123L694.0469 26.803123L693.75 28.240623Q694.5781 27.396873 695.2969 27.006248Q696.03125 26.615623 696.7969 26.615623Q697.7969 26.615623 698.375 27.162498Q698.9531 27.709373 698.9531 28.615623Q698.9531 29.084373 698.75 30.068748L697.6875 35.1L696.28125 35.1L697.375 29.834373Q697.5469 29.068748 697.5469 28.709373Q697.5469 28.287498 697.25 28.037498Q696.96875 27.771873 696.4375 27.771873Q695.34375 27.771873 694.5 28.553123Q693.65625 29.334373 693.25 31.240623L692.4531 35.1L691.03125 35.1ZM703.34375 33.94375L703.1094 35.115623Q702.59375 35.240623 702.125 35.240623Q701.28125 35.240623 700.78125 34.81875Q700.40625 34.50625 700.40625 33.975Q700.40625 33.69375 700.6094 32.709373L701.6094 27.896873L700.5 27.896873L700.71875 26.803123L701.84375 26.803123L702.2656 24.756248L703.8906 23.787498L703.25 26.803123L704.6406 26.803123L704.40625 27.896873L703.03125 27.896873L702.0625 32.475Q701.8906 33.35 701.8906 33.521873Q701.8906 33.771873 702.03125 33.9125Q702.1719 34.0375 702.5 34.0375Q702.96875 34.0375 703.34375 33.94375ZM706.0469 25.240623L706.375 23.646873L707.78125 23.646873L707.4531 25.240623L706.0469 25.240623ZM703.9844 35.1L705.71875 26.803123L707.125 26.803123L705.3906 35.1L703.9844 35.1ZM708.03125 35.1L709.7656 26.803123L711.0469 26.803123L710.75 28.240623Q711.5781 27.396873 712.2969 27.006248Q713.03125 26.615623 713.7969 26.615623Q714.7969 26.615623 715.375 27.162498Q715.9531 27.709373 715.9531 28.615623Q715.9531 29.084373 715.75 30.068748L714.6875 35.1L713.28125 35.1L714.375 29.834373Q714.5469 29.068748 714.5469 28.709373Q714.5469 28.287498 714.25 28.037498Q713.96875 27.771873 713.4375 27.771873Q712.34375 27.771873 711.5 28.553123Q710.65625 29.334373 710.25 31.240623L709.4531 35.1L708.03125 35.1ZM716.9531 35.85L718.3906 35.990623Q718.375 36.475 718.5 36.709373Q718.6406 36.959373 718.9219 37.084373Q719.3125 37.25625 719.9219 37.25625Q721.2031 37.25625 721.7656 36.6Q722.125 36.146873 722.4375 34.646873L722.5781 33.975Q721.4844 35.1 720.2344 35.1Q718.9844 35.1 718.125 34.178123Q717.28125 33.240623 717.28125 31.553123Q717.28125 30.146873 717.9531 28.974998Q718.625 27.803123 719.5469 27.209373Q720.46875 26.615623 721.4375 26.615623Q723.0781 26.615623 723.9531 28.162498L724.2344 26.803123L725.53125 26.803123L723.8594 34.803123Q723.59375 36.13125 723.1406 36.865623Q722.7031 37.615623 721.90625 38.021873Q721.1094 38.428123 720.0781 38.428123Q719.0781 38.428123 718.34375 38.1625Q717.625 37.9125 717.2656 37.4125Q716.9219 36.9125 716.9219 36.271873Q716.9219 36.084373 716.9531 35.85ZM718.71875 31.428123Q718.71875 32.271873 718.8906 32.709373Q719.125 33.303123 719.5469 33.63125Q719.9844 33.94375 720.5156 33.94375Q721.21875 33.94375 721.90625 33.459373Q722.59375 32.959373 723.0156 31.943748Q723.4375 30.912498 723.4375 29.990623Q723.4375 28.959373 722.875 28.365623Q722.3125 27.756248 721.46875 27.756248Q720.9531 27.756248 720.46875 28.037498Q719.9844 28.303123 719.5625 28.881248Q719.15625 29.443748 718.9375 30.240623Q718.71875 31.021873 718.71875 31.428123ZM730.21875 35.1L732.6094 23.646873L736.0625 23.646873Q737.2969 23.646873 737.9531 23.818748Q738.8906 24.068748 739.5469 24.693748Q740.21875 25.303123 740.5469 26.240623Q740.8906 27.162498 740.8906 28.318748Q740.8906 29.709373 740.46875 30.849998Q740.0625 31.974998 739.375 32.85Q738.7031 33.709373 737.96875 34.19375Q737.2344 34.678123 736.21875 34.9125Q735.4531 35.1 734.34375 35.1L730.21875 35.1ZM732.0156 33.803123L733.8281 33.803123Q735.0625 33.803123 736.0156 33.56875Q736.6094 33.428123 737.03125 33.1625Q737.5781 32.803123 738.03125 32.225Q738.625 31.459373 738.9844 30.490623Q739.34375 29.506248 739.34375 28.256248Q739.34375 26.865623 738.8594 26.115623Q738.375 25.365623 737.625 25.131248Q737.0625 24.943748 735.8906 24.943748L733.875 24.943748L732.0156 33.803123ZM742.03125 35.1L743.7656 26.803123L745.0156 26.803123L744.6719 28.490623Q745.3125 27.537498 745.9219 27.084373Q746.53125 26.615623 747.1719 26.615623Q747.59375 26.615623 748.21875 26.912498L747.6406 28.224998Q747.2656 27.959373 746.8281 27.959373Q746.09375 27.959373 745.3125 28.787498Q744.53125 29.615623 744.0781 31.771873L743.375 35.1L742.03125 35.1ZM752.625 34.06875Q751.8906 34.69375 751.2031 34.990623Q750.53125 35.2875 749.7656 35.2875Q748.6094 35.2875 747.90625 34.615623Q747.2031 33.928123 747.2031 32.88125Q747.2031 32.178123 747.5156 31.646873Q747.84375 31.115623 748.3594 30.787498Q748.8906 30.459373 749.6406 30.318748Q750.125 30.224998 751.4531 30.178123Q752.78125 30.115623 753.3594 29.896873Q753.53125 29.318748 753.53125 28.928123Q753.53125 28.443748 753.1719 28.162498Q752.6719 27.771873 751.7344 27.771873Q750.84375 27.771873 750.2656 28.162498Q749.7031 28.553123 749.4531 29.287498L748.0156 29.162498Q748.4531 27.928123 749.40625 27.271873Q750.3594 26.615623 751.7969 26.615623Q753.34375 26.615623 754.2344 27.349998Q754.9219 27.896873 754.9219 28.771873Q754.9219 29.428123 754.7344 30.303123L754.2656 32.365623Q754.0469 33.35 754.0469 33.975Q754.0469 34.365623 754.21875 35.1L752.7969 35.1Q752.6719 34.69375 752.625 34.06875ZM753.15625 30.896873Q752.8594 31.006248 752.5156 31.068748Q752.1719 31.131248 751.375 31.209373Q750.1406 31.318748 749.625 31.490623Q749.125 31.646873 748.8594 32.021873Q748.6094 32.38125 748.6094 32.834373Q748.6094 33.428123 749.0156 33.81875Q749.4375 34.19375 750.1875 34.19375Q750.8906 34.19375 751.53125 33.81875Q752.1875 33.44375 752.5625 32.7875Q752.9375 32.115623 753.15625 30.896873ZM757.6094 35.1L756.75 26.803123L758.1094 26.803123L758.4844 30.521873L758.625 32.615623Q758.6406 32.85 758.6719 33.56875Q758.90625 32.771873 759.0625 32.35Q759.2344 31.912498 759.59375 31.131248L761.5781 26.803123L763.1094 26.803123L763.3906 30.943748Q763.4531 31.896873 763.46875 33.475Q763.8594 32.428123 764.7344 30.568748L766.5156 26.803123L767.9375 26.803123L763.875 35.1L762.40625 35.1L762.09375 30.224998Q762.0625 29.771873 762.0469 28.459373Q761.7344 29.303123 761.2969 30.271873L759.09375 35.1L757.6094 35.1ZM767.0469 25.240623L767.375 23.646873L768.78125 23.646873L768.4531 25.240623L767.0469 25.240623ZM764.9844 35.1L766.71875 26.803123L768.125 26.803123L766.3906 35.1L764.9844 35.1ZM769.03125 35.1L770.7656 26.803123L772.0469 26.803123L771.75 28.240623Q772.5781 27.396873 773.2969 27.006248Q774.03125 26.615623 774.7969 26.615623Q775.7969 26.615623 776.375 27.162498Q776.9531 27.709373 776.9531 28.615623Q776.9531 29.084373 776.75 30.068748L775.6875 35.1L774.28125 35.1L775.375 29.834373Q775.5469 29.068748 775.5469 28.709373Q775.5469 28.287498 775.25 28.037498Q774.96875 27.771873 774.4375 27.771873Q773.34375 27.771873 772.5 28.553123Q771.65625 29.334373 771.25 31.240623L770.4531 35.1L769.03125 35.1ZM777.9531 35.85L779.3906 35.990623Q779.375 36.475 779.5 36.709373Q779.6406 36.959373 779.9219 37.084373Q780.3125 37.25625 780.9219 37.25625Q782.2031 37.25625 782.7656 36.6Q783.125 36.146873 783.4375 34.646873L783.5781 33.975Q782.4844 35.1 781.2344 35.1Q779.9844 35.1 779.125 34.178123Q778.28125 33.240623 778.28125 31.553123Q778.28125 30.146873 778.9531 28.974998Q779.625 27.803123 780.5469 27.209373Q781.46875 26.615623 782.4375 26.615623Q784.0781 26.615623 784.9531 28.162498L785.2344 26.803123L786.53125 26.803123L784.8594 34.803123Q784.59375 36.13125 784.1406 36.865623Q783.7031 37.615623 782.90625 38.021873Q782.1094 38.428123 781.0781 38.428123Q780.0781 38.428123 779.34375 38.1625Q778.625 37.9125 778.2656 37.4125Q777.9219 36.9125 777.9219 36.271873Q777.9219 36.084373 777.9531 35.85ZM779.71875 31.428123Q779.71875 32.271873 779.8906 32.709373Q780.125 33.303123 780.5469 33.63125Q780.9844 33.94375 781.5156 33.94375Q782.21875 33.94375 782.90625 33.459373Q783.59375 32.959373 784.0156 31.943748Q784.4375 30.912498 784.4375 29.990623Q784.4375 28.959373 783.875 28.365623Q783.3125 27.756248 782.46875 27.756248Q781.9531 27.756248 781.46875 28.037498Q780.9844 28.303123 780.5625 28.881248Q780.15625 29.443748 779.9375 30.240623Q779.71875 31.021873 779.71875 31.428123ZM787.1719 32.25625L788.5781 32.178123Q788.5781 32.7875 788.7656 33.225Q788.9531 33.646873 789.4531 33.928123Q789.96875 34.19375 790.6406 34.19375Q791.5781 34.19375 792.0469 33.81875Q792.5156 33.44375 792.5156 32.928123Q792.5156 32.56875 792.2344 32.240623Q791.9375 31.912498 790.8125 31.428123Q789.7031 30.943748 789.3906 30.756248Q788.8594 30.428123 788.59375 30.006248Q788.3281 29.568748 788.3281 29.006248Q788.3281 28.021873 789.1094 27.318748Q789.8906 26.615623 791.2969 26.615623Q792.8594 26.615623 793.6719 27.334373Q794.5 28.053123 794.53125 29.240623L793.1406 29.334373Q793.1094 28.584373 792.6094 28.146873Q792.1094 27.709373 791.2031 27.709373Q790.46875 27.709373 790.0625 28.053123Q789.65625 28.381248 789.65625 28.771873Q789.65625 29.162498 790.0 29.459373Q790.2344 29.662498 791.21875 30.084373Q792.84375 30.787498 793.2656 31.193748Q793.9375 31.834373 793.9375 32.771873Q793.9375 33.38125 793.5469 33.975Q793.1719 34.56875 792.3906 34.928123Q791.625 35.2875 790.5625 35.2875Q789.125 35.2875 788.125 34.56875Q787.1094 33.865623 787.1719 32.25625Z" fill-rule="nonzero"/></svg>